<?xml version="1.0" encoding="UTF-8" standalone="no"?>
<!-- Uploaded to: SVG Repo, www.svgrepo.com, Generator: SVG Repo Mixer Tools -->

<svg
   width="800px"
   height="800px"
   viewBox="0 0 24 24"
   fill="none"
   version="1.1"
   id="svg5153"
   sodipodi:docname="18X6.svg"
   inkscape:version="1.2.2 (732a01da63, 2022-12-09)"
   xml:space="preserve"
   xmlns:inkscape="http://www.inkscape.org/namespaces/inkscape"
   xmlns:sodipodi="http://sodipodi.sourceforge.net/DTD/sodipodi-0.dtd"
   xmlns="http://www.w3.org/2000/svg"
   xmlns:svg="http://www.w3.org/2000/svg"><defs
     id="defs5157" /><sodipodi:namedview
     id="namedview5155"
     pagecolor="#505050"
     bordercolor="#eeeeee"
     borderopacity="1"
     inkscape:showpageshadow="0"
     inkscape:pageopacity="0"
     inkscape:pagecheckerboard="0"
     inkscape:deskcolor="#505050"
     showgrid="false"
     inkscape:zoom="1.03625"
     inkscape:cx="414.47527"
     inkscape:cy="363.81182"
     inkscape:window-width="1920"
     inkscape:window-height="1009"
     inkscape:window-x="-8"
     inkscape:window-y="-8"
     inkscape:window-maximized="1"
     inkscape:current-layer="svg5153" /><path
     d="m 22.709578,6.4395416 c 0,-1.41184 -1.14816,-2.56 -2.56,-2.56 -1.41184,0 -2.56,1.14816 -2.56,2.56 0,0.5664 0.19072,1.08544 0.50368,1.50976 -0.50752,0.5196804 -0.82368,1.2281604 -0.82368,2.0102404 0,1.58784 1.29216,2.88 2.88,2.88 1.58784,0 2.88,-1.29216 2.88,-2.88 0,-0.78208 -0.31552,-1.49056 -0.82368,-2.0102404 0.31232,-0.42432 0.50368,-0.94336 0.50368,-1.50976 z m -2.56,-0.96 c 0.52992,0 0.96,0.43072 0.96,0.96 0,0.52928 -0.43008,0.96 -0.96,0.96 -0.52992,0 -0.96,-0.43072 -0.96,-0.96 0,-0.52928 0.43008,-0.96 0.96,-0.96 z m 0,5.4400004 c -0.52928,0 -0.96,-0.43072 -0.96,-0.96 0,-0.52928 0.43072,-0.96 0.96,-0.96 0.52928,0 0.96,0.43072 0.96,0.96 0,0.52928 -0.43072,0.96 -0.96,0.96 z"
     id="path6851"
     sodipodi:nodetypes="ccssscssscsssssssssss"
     style="stroke-width:0.64" /><path
     d="m -10.451146,0.9202413 c -0.30336,0 -0.59648,0.04736 -0.87168,0.13504 0.23488,-1.17631998 0.93952,-1.41503998 2.1516799,-1.41503998 0.53056,0 0.9599999,-0.43007999 0.9599999,-0.96000002 0,-0.52992 -0.4294399,-0.96 -0.9599999,-0.96 -2.7993599,0 -4.1599999,1.44448003 -4.1599999,4.416 v 1.664 c 0,1.5878399 1.29216,2.8799999 2.88,2.8799999 1.5878399,0 2.8799998,-1.29216 2.8799998,-2.8799999 0,-1.58784 -1.2921599,-2.88 -2.8799998,-2.88 z m 0,3.8399999 c -0.52928,0 -0.96,-0.43072 -0.96,-0.9599999 0,-0.52928 0.43072,-0.96 0.96,-0.96 0.5292799,0 0.9599999,0.43072 0.9599999,0.96 0,0.5292799 -0.43072,0.9599999 -0.9599999,0.9599999 z"
     id="path2770"
     style="stroke-width:0.64" /><path
     d="m 17.891436,7.3690471 c -0.30336,0 -0.59648,0.04736 -0.87168,0.13504 0.23488,-1.17632 0.93952,-1.41504 2.15168,-1.41504 0.53056,0 0.96,-0.43008 0.96,-0.96 0,-0.52992 -0.42944,-0.96 -0.96,-0.96 -2.79936,0 -4.16,1.44448 -4.16,4.4159999 v 1.664 c 0,1.58784 1.29216,2.88 2.88,2.88 1.58784,0 2.88,-1.29216 2.88,-2.88 0,-1.58784 -1.29216,-2.8799999 -2.88,-2.8799999 z m 0,3.8399999 c -0.52928,0 -0.96,-0.43072 -0.96,-0.96 0,-0.52928 0.43072,-0.96 0.96,-0.96 0.52928,0 0.96,0.43072 0.96,0.96 0,0.52928 -0.43072,0.96 -0.96,0.96 z"
     id="path2770-8"
     style="stroke-width:0.64" /><path
     d="m -6.6221468,-6.8353296 c -0.6975328,0 -1.3715202,0.062509 -2.0043032,0.1782362 0.5400729,-1.5525984 2.1602916,-1.8676796 4.9474795,-1.8676796 1.2199467,0 2.2073822,-0.567653 2.2073822,-1.2670826 0,-0.6994294 -0.9874355,-1.2670824 -2.2073822,-1.2670824 -6.4367265,0 -9.5653235,1.9065367 -9.5653235,5.8285796 v 2.1962764 c 0,2.09575442 2.971137,3.8012475 6.6221472,3.8012475 C -2.9711365,0.7671655 0,-0.93832758 0,-3.034082 0,-5.1298365 -2.9711365,-6.8353296 -6.6221468,-6.8353296 Z m 0,5.06833 c -1.2170035,0 -2.2073824,-0.5684977 -2.2073824,-1.2670824 0,-0.6985848 0.9903789,-1.2670825 2.2073824,-1.2670825 1.2170033,0 2.2073822,0.5684977 2.2073822,1.2670825 0,0.6985847 -0.9903789,1.2670824 -2.2073822,1.2670824 z"
     id="path3532"
     style="stroke-width:1.11494" /><path
     d="M 20.129634,2.2002 H 3.870367 c -1.8459048,0 -3.347496,1.0387906 -3.347496,2.3157751 V 18.0798 H 23.477129 V 4.5159751 C 23.477129,3.2389906 21.975538,2.2002 20.129634,2.2002 Z M 21.186857,16.018398 3.0157971,16.171303 2.8710444,4.8839888 C 3.007948,4.3150808 3.6073494,4.18515 3.870367,4.18515 h 16.259267 c 0.263017,0 0.86307,0.064316 1.103767,0.6559762 z"
     id="path6851-3"
     style="fill:#00cc66;fill-opacity:1;stroke-width:0.281466;stroke-dasharray:none"
     sodipodi:nodetypes="sssccsscccsscc" /><path
     d="M 10.316222,15.36848 H 8.3206854 V 7.8478419 C 7.5924657,8.527569 6.73331,9.030292 5.7440287,9.356819 V 7.5512191 C 6.2645329,7.3806812 6.8302985,7.0565786 7.440517,6.5797193 8.0507355,6.1028598 8.4694007,5.5467937 8.6973242,4.9115201 h 1.6188978 z"
     id="path25489"
     style="display:inline;fill:#00cc65;fill-opacity:1;stroke-width:0.808233" /><path
     d="m 17.666435,7.89 c 0,-1.6545001 -1.345499,-3 -2.999999,-3 -1.6545,0 -3.000001,1.3454999 -3.000001,3 0,0.66375 0.223501,1.272 0.590251,1.76925 -0.59475,0.609 -0.96525,1.43925 -0.96525,2.35575 0,1.86075 1.514249,3.375 3.375,3.375 1.860749,0 3.375,-1.51425 3.375,-3.375 0,-0.9165 -0.369751,-1.74675 -0.96525,-2.35575 0.366,-0.49725 0.590249,-1.1055 0.590249,-1.76925 z M 14.666436,6.7649999 c 0.621,0 1.125,0.50475 1.125,1.1250001 0,0.62025 -0.504,1.125 -1.125,1.125 -0.621,0 -1.125,-0.50475 -1.125,-1.125 0,-0.6202501 0.504,-1.1250001 1.125,-1.1250001 z m 0,6.3750001 c -0.62025,0 -1.125,-0.50475 -1.125,-1.125 0,-0.62025 0.50475,-1.125 1.125,-1.125 0.62025,0 1.125,0.50475 1.125,1.125 0,0.62025 -0.50475,1.125 -1.125,1.125 z"
     id="path6851-1"
     style="fill:#00cc66;fill-opacity:1;stroke-width:0.749988;stroke-dasharray:none"
     sodipodi:nodetypes="ccssscssscsssssssssss" /></svg>
