<?xml version="1.0" encoding="UTF-8" standalone="no"?>
<!-- Uploaded to: SVG Repo, www.svgrepo.com, Generator: SVG Repo Mixer Tools -->

<svg
   width="800px"
   height="800px"
   viewBox="0 0 24 24"
   fill="none"
   version="1.1"
   id="svg5153"
   sodipodi:docname="24X12.svg"
   inkscape:version="1.2.2 (732a01da63, 2022-12-09)"
   xml:space="preserve"
   xmlns:inkscape="http://www.inkscape.org/namespaces/inkscape"
   xmlns:sodipodi="http://sodipodi.sourceforge.net/DTD/sodipodi-0.dtd"
   xmlns="http://www.w3.org/2000/svg"
   xmlns:svg="http://www.w3.org/2000/svg"><defs
     id="defs5157" /><sodipodi:namedview
     id="namedview5155"
     pagecolor="#505050"
     bordercolor="#eeeeee"
     borderopacity="1"
     inkscape:showpageshadow="0"
     inkscape:pageopacity="0"
     inkscape:pagecheckerboard="0"
     inkscape:deskcolor="#505050"
     showgrid="false"
     inkscape:zoom="1.03625"
     inkscape:cx="604.58384"
     inkscape:cy="363.81182"
     inkscape:window-width="1920"
     inkscape:window-height="1009"
     inkscape:window-x="-8"
     inkscape:window-y="-8"
     inkscape:window-maximized="1"
     inkscape:current-layer="svg5153" /><path
     d="m 22.709578,6.4395416 c 0,-1.41184 -1.14816,-2.56 -2.56,-2.56 -1.41184,0 -2.56,1.14816 -2.56,2.56 0,0.5664 0.19072,1.08544 0.50368,1.50976 -0.50752,0.5196804 -0.82368,1.2281604 -0.82368,2.0102404 0,1.58784 1.29216,2.88 2.88,2.88 1.58784,0 2.88,-1.29216 2.88,-2.88 0,-0.78208 -0.31552,-1.49056 -0.82368,-2.0102404 0.31232,-0.42432 0.50368,-0.94336 0.50368,-1.50976 z m -2.56,-0.96 c 0.52992,0 0.96,0.43072 0.96,0.96 0,0.52928 -0.43008,0.96 -0.96,0.96 -0.52992,0 -0.96,-0.43072 -0.96,-0.96 0,-0.52928 0.43008,-0.96 0.96,-0.96 z m 0,5.4400004 c -0.52928,0 -0.96,-0.43072 -0.96,-0.96 0,-0.52928 0.43072,-0.96 0.96,-0.96 0.52928,0 0.96,0.43072 0.96,0.96 0,0.52928 -0.43072,0.96 -0.96,0.96 z"
     id="path6851"
     sodipodi:nodetypes="ccssscssscsssssssssss"
     style="stroke-width:0.64" /><path
     d="m -10.451146,0.9202413 c -0.30336,0 -0.59648,0.04736 -0.87168,0.13504 0.23488,-1.17631998 0.93952,-1.41503998 2.1516799,-1.41503998 0.53056,0 0.9599999,-0.43007999 0.9599999,-0.96000002 0,-0.52992 -0.4294399,-0.96 -0.9599999,-0.96 -2.7993599,0 -4.1599999,1.44448003 -4.1599999,4.416 v 1.664 c 0,1.5878399 1.29216,2.8799999 2.88,2.8799999 1.5878399,0 2.8799998,-1.29216 2.8799998,-2.8799999 0,-1.58784 -1.2921599,-2.88 -2.8799998,-2.88 z m 0,3.8399999 c -0.52928,0 -0.96,-0.43072 -0.96,-0.9599999 0,-0.52928 0.43072,-0.96 0.96,-0.96 0.5292799,0 0.9599999,0.43072 0.9599999,0.96 0,0.5292799 -0.43072,0.9599999 -0.9599999,0.9599999 z"
     id="path2770"
     style="stroke-width:0.64" /><path
     d="m 17.891436,7.3690471 c -0.30336,0 -0.59648,0.04736 -0.87168,0.13504 0.23488,-1.17632 0.93952,-1.41504 2.15168,-1.41504 0.53056,0 0.96,-0.43008 0.96,-0.96 0,-0.52992 -0.42944,-0.96 -0.96,-0.96 -2.79936,0 -4.16,1.44448 -4.16,4.4159999 v 1.664 c 0,1.58784 1.29216,2.88 2.88,2.88 1.58784,0 2.88,-1.29216 2.88,-2.88 0,-1.58784 -1.29216,-2.8799999 -2.88,-2.8799999 z m 0,3.8399999 c -0.52928,0 -0.96,-0.43072 -0.96,-0.96 0,-0.52928 0.43072,-0.96 0.96,-0.96 0.52928,0 0.96,0.43072 0.96,0.96 0,0.52928 -0.43072,0.96 -0.96,0.96 z"
     id="path2770-8"
     style="stroke-width:0.64" /><path
     d="m -6.6221468,-6.8353296 c -0.6975328,0 -1.3715202,0.062509 -2.0043032,0.1782362 0.5400729,-1.5525984 2.1602916,-1.8676796 4.9474795,-1.8676796 1.2199467,0 2.2073822,-0.567653 2.2073822,-1.2670826 0,-0.6994294 -0.9874355,-1.2670824 -2.2073822,-1.2670824 -6.4367265,0 -9.5653235,1.9065367 -9.5653235,5.8285796 v 2.1962764 c 0,2.09575442 2.971137,3.8012475 6.6221472,3.8012475 C -2.9711365,0.7671655 0,-0.93832758 0,-3.034082 0,-5.1298365 -2.9711365,-6.8353296 -6.6221468,-6.8353296 Z m 0,5.06833 c -1.2170035,0 -2.2073824,-0.5684977 -2.2073824,-1.2670824 0,-0.6985848 0.9903789,-1.2670825 2.2073824,-1.2670825 1.2170033,0 2.2073822,0.5684977 2.2073822,1.2670825 0,0.6985847 -0.9903789,1.2670824 -2.2073822,1.2670824 z"
     id="path3532"
     style="stroke-width:1.11494" /><path
     d="M 20.129634,2.2002 H 3.870367 c -1.8459048,0 -3.347496,1.0387906 -3.347496,2.3157751 V 18.0798 H 23.477129 V 4.5159751 C 23.477129,3.2389906 21.975538,2.2002 20.129634,2.2002 Z M 21.186857,16.018398 3.0157971,16.171303 2.8710444,4.8839888 C 3.007948,4.3150808 3.6073494,4.18515 3.870367,4.18515 h 16.259267 c 0.263017,0 0.86307,0.064316 1.103767,0.6559762 z"
     id="path6851-3"
     style="fill:#00cc66;fill-opacity:1;stroke-width:0.281466;stroke-dasharray:none"
     sodipodi:nodetypes="sssccsscccsscc" /><path
     d="m 16.499164,4.7263771 h 2.052272 V 14.832707 H 16.499164 V 11.46393 h -1.710228 c -1.320295,0 -2.394318,-1.322244 -2.394318,-2.9476791 V 4.7263771 h 2.052273 v 3.7898737 c 0,0.231604 0.15392,0.421097 0.342045,0.421097 h 1.710228 z"
     id="path23919"
     style="fill:#00cc66;fill-opacity:1;stroke-width:0.759039"
     sodipodi:nodetypes="cccccssccsscc" /><path
     d="m 11.807091,13.043003 v 1.816029 H 4.9635778 C 5.0371044,14.173574 5.2592657,13.524484 5.6300613,12.91018 6.0000668,12.296668 6.7313799,11.481548 7.8232111,10.467198 8.7015776,9.6473356 9.2407737,9.0915378 9.4400065,8.799803 9.708814,8.3965923 9.8432163,7.9981253 9.8432163,7.604402 9.8432163,7.1687765 9.7269971,6.8335581 9.4945586,6.5995377 9.2621201,6.3655175 8.9411321,6.2485072 8.5308072,6.2485072 c -0.4047929,0 -0.7273608,0.1233352 -0.9669165,0.3692145 C 7.3243361,6.8636012 7.1859796,7.2715555 7.1504021,7.8423754 L 5.1983888,7.6470949 C 5.3138176,6.5726572 5.6767072,5.8010226 6.2878485,5.3321913 6.8989892,4.8633602 7.662717,4.6301304 8.5790329,4.6301304 c 1.004074,0 1.7931021,0.271179 2.3670841,0.8127462 0.573984,0.5415673 0.860974,1.215957 0.860974,2.0215876 0,0.4585533 -0.08223,0.8949695 -0.246669,1.3092487 -0.164449,0.4142793 -0.424558,0.8491144 -0.781123,1.3021331 -0.236392,0.300431 -0.663322,0.734476 -1.2815781,1.299762 -0.6174654,0.564495 -1.0088167,0.939244 -1.1732643,1.124247 -0.1644459,0.185002 -0.2972685,0.366051 -0.399257,0.542358 h 3.8818914 z"
     id="path30567"
     style="fill:#00cc65;fill-opacity:1;stroke-width:0.790609" /></svg>
