<?xml version="1.0" encoding="UTF-8" standalone="no"?>
<!-- Uploaded to: SVG Repo, www.svgrepo.com, Generator: SVG Repo Mixer Tools -->

<svg
   width="800px"
   height="800px"
   viewBox="0 0 24 24"
   fill="none"
   version="1.1"
   id="svg5153"
   sodipodi:docname="2_necklace.svg"
   inkscape:version="1.2.2 (732a01da63, 2022-12-09)"
   xml:space="preserve"
   xmlns:inkscape="http://www.inkscape.org/namespaces/inkscape"
   xmlns:sodipodi="http://sodipodi.sourceforge.net/DTD/sodipodi-0.dtd"
   xmlns="http://www.w3.org/2000/svg"
   xmlns:svg="http://www.w3.org/2000/svg"><defs
     id="defs5157" /><sodipodi:namedview
     id="namedview5155"
     pagecolor="#505050"
     bordercolor="#eeeeee"
     borderopacity="1"
     inkscape:showpageshadow="0"
     inkscape:pageopacity="0"
     inkscape:pagecheckerboard="0"
     inkscape:deskcolor="#505050"
     showgrid="false"
     inkscape:zoom="0.518125"
     inkscape:cx="290.47045"
     inkscape:cy="534.62002"
     inkscape:window-width="1920"
     inkscape:window-height="1009"
     inkscape:window-x="-8"
     inkscape:window-y="-8"
     inkscape:window-maximized="1"
     inkscape:current-layer="svg5153" /><path
     d="m 12.000065,21.688417 c -1.197684,0 -2.1720932,-0.967056 -2.1720932,-2.155722 0,-0.641307 0.2835972,-1.218045 0.7329062,-1.613303 7.62631,6.458763 -1.0317292,-0.188058 -1.577616,-0.3887 0.015587,0.07993 -0.5593481,1.536673 -1.2762343,1.536673 -0.7168868,0 -1.2999854,-0.578707 -1.2999854,-1.290191 0,-0.493399 0.2805016,-0.922986 0.6915874,-1.139968 C 6.5219412,16.278444 5.9768465,15.850171 5.4756116,15.352605 1.877921,11.782138 1.877921,5.9724012 5.4755009,2.4019329 c 0.1293689,-0.1285018 0.3392756,-0.1285018 0.4686444,0 0.1294793,0.1283935 0.1294793,0.3367198 0,0.4651132 -3.3391738,3.3141183 -3.3391738,8.7063289 0,12.0204529 1.6694212,1.656731 3.8629455,2.485312 6.0558087,2.485533 2.193415,3.06e-4 4.386057,-0.82837 6.055809,-2.485533 3.339172,-3.314124 3.339172,-8.7063346 0,-12.0204529 -0.129479,-0.1283934 -0.129479,-0.3367192 0,-0.4651132 0.129368,-0.1285018 0.339275,-0.1285018 0.468644,0 3.59769,3.5704683 3.59769,9.3802051 0,12.9506721 -0.501346,0.497566 -1.046331,0.925617 -1.623021,1.284601 0.411087,0.216982 0.691588,0.646569 0.691588,1.139968 0,0.711372 -0.583098,1.290191 -1.299987,1.290191 -0.716885,0 -2.319801,-1.230982 -2.853849,-1.147973 0.449312,0.395152 0.732907,0.971996 0.732907,1.613303 1.1e-4,1.188666 -0.9743,2.155722 -2.171983,2.155722 z"
     stroke="#000000"
     stroke-width="2"
     stroke-linecap="round"
     stroke-linejoin="round"
     id="path5151"
     style="display:inline;stroke:#00cc65;stroke-width:2.58439;stroke-dasharray:none;stroke-opacity:1"
     sodipodi:nodetypes="ssccsscccccccccccccssccss" /><path
     d="m 16.315288,11.24666 v 2.290253 H 7.6847115 c 0.092727,-0.864453 0.3729016,-1.683042 0.8405241,-2.45776 0.4666259,-0.773721 1.3889089,-1.8016937 2.7658524,-3.0809251 1.107737,-1.0339543 1.787734,-1.7348895 2.038993,-2.1028058 0.339002,-0.5085022 0.508502,-1.0110219 0.508502,-1.5075592 0,-0.5493817 -0.146568,-0.9721364 -0.439704,-1.2672671 -0.293136,-0.2951306 -0.697944,-0.442696 -1.215419,-0.442696 -0.510497,0 -0.917298,0.1555419 -1.219409,0.4656285 -0.30211,0.3100865 -0.476596,0.824571 -0.521464,1.5444506 L 7.9808392,4.4417043 C 8.1264104,3.0866957 8.5840623,2.1135623 9.3547925,1.5223039 10.125522,0.93104557 11.088684,0.63691194 12.24428,0.63691194 c 1.26627,0 2.261339,0.34199266 2.985207,1.02498076 0.723868,0.6829881 1.085801,1.5334829 1.085801,2.54949 0,0.5782966 -0.103694,1.1286753 -0.311083,1.6511363 -0.20739,0.5224611 -0.535423,1.0708457 -0.985099,1.6421627 -0.298121,0.378884 -0.836536,0.9262715 -1.616239,1.6391711 -0.778706,0.7119036 -1.272252,1.1845112 -1.479642,1.4178242 -0.207388,0.233313 -0.374895,0.46164 -0.503516,0.683985 h 4.895579 z"
     id="path30567"
     style="fill:#00cc65;fill-opacity:1;stroke-width:0.997063" /></svg>
