<?xml version="1.0" encoding="UTF-8" standalone="no"?>
<!-- Uploaded to: SVG Repo, www.svgrepo.com, Generator: SVG Repo Mixer Tools -->

<svg
   width="800px"
   height="800px"
   viewBox="0 0 24 24"
   fill="none"
   version="1.1"
   id="svg5153"
   sodipodi:docname="3_necklace.svg"
   inkscape:version="1.2.2 (732a01da63, 2022-12-09)"
   xml:space="preserve"
   xmlns:inkscape="http://www.inkscape.org/namespaces/inkscape"
   xmlns:sodipodi="http://sodipodi.sourceforge.net/DTD/sodipodi-0.dtd"
   xmlns="http://www.w3.org/2000/svg"
   xmlns:svg="http://www.w3.org/2000/svg"><defs
     id="defs5157" /><sodipodi:namedview
     id="namedview5155"
     pagecolor="#505050"
     bordercolor="#eeeeee"
     borderopacity="1"
     inkscape:showpageshadow="0"
     inkscape:pageopacity="0"
     inkscape:pagecheckerboard="0"
     inkscape:deskcolor="#505050"
     showgrid="false"
     inkscape:zoom="0.518125"
     inkscape:cx="290.47045"
     inkscape:cy="534.62002"
     inkscape:window-width="1920"
     inkscape:window-height="1009"
     inkscape:window-x="-8"
     inkscape:window-y="-8"
     inkscape:window-maximized="1"
     inkscape:current-layer="svg5153" /><path
     d="m 12.000065,21.688417 c -1.197684,0 -2.1720932,-0.967056 -2.1720932,-2.155722 0,-0.641307 0.2835972,-1.218045 0.7329062,-1.613303 7.62631,6.458763 -1.0317292,-0.188058 -1.577616,-0.3887 0.015587,0.07993 -0.5593481,1.536673 -1.2762343,1.536673 -0.7168868,0 -1.2999854,-0.578707 -1.2999854,-1.290191 0,-0.493399 0.2805016,-0.922986 0.6915874,-1.139968 C 6.5219412,16.278444 5.9768465,15.850171 5.4756116,15.352605 1.877921,11.782138 1.877921,5.9724012 5.4755009,2.4019329 c 0.1293689,-0.1285018 0.3392756,-0.1285018 0.4686444,0 0.1294793,0.1283935 0.1294793,0.3367198 0,0.4651132 -3.3391738,3.3141183 -3.3391738,8.7063289 0,12.0204529 1.6694212,1.656731 3.8629455,2.485312 6.0558087,2.485533 2.193415,3.06e-4 4.386057,-0.82837 6.055809,-2.485533 3.339172,-3.314124 3.339172,-8.7063346 0,-12.0204529 -0.129479,-0.1283934 -0.129479,-0.3367192 0,-0.4651132 0.129368,-0.1285018 0.339275,-0.1285018 0.468644,0 3.59769,3.5704683 3.59769,9.3802051 0,12.9506721 -0.501346,0.497566 -1.046331,0.925617 -1.623021,1.284601 0.411087,0.216982 0.691588,0.646569 0.691588,1.139968 0,0.711372 -0.583098,1.290191 -1.299987,1.290191 -0.716885,0 -2.319801,-1.230982 -2.853849,-1.147973 0.449312,0.395152 0.732907,0.971996 0.732907,1.613303 1.1e-4,1.188666 -0.9743,2.155722 -2.171983,2.155722 z"
     stroke="#000000"
     stroke-width="2"
     stroke-linecap="round"
     stroke-linejoin="round"
     id="path5151"
     style="display:inline;stroke:#00cc65;stroke-width:2.58439;stroke-dasharray:none;stroke-opacity:1"
     sodipodi:nodetypes="ssccsscccccccccccccssccss" /><path
     d="m 15.069153,12.761609 c -0.833237,0.803982 -1.870243,1.20446 -3.113036,1.20446 -1.176215,0 -2.1516855,-0.337935 -2.9254055,-1.013805 C 8.2549749,12.276395 7.8060764,11.393729 7.6819988,10.30225 l 2.4119462,-0.291532 c 0.07667,0.612318 0.283462,1.080383 0.621396,1.405204 0.335918,0.323812 0.744466,0.486223 1.223627,0.486223 0.514468,0 0.947227,-0.1957 1.300293,-0.587099 0.351049,-0.390391 0.526573,-0.916964 0.526573,-1.5797196 0,-0.6264405 -0.168463,-1.1247683 -0.505389,-1.4919573 C 12.92251,7.8761802 12.511944,7.6935945 12.02673,7.6935945 c -0.319777,0 -0.701088,0.062543 -1.145952,0.185612 l 0.274383,-2.0144952 c 0.673852,0.018158 1.18832,-0.1281126 1.542395,-0.4378022 0.354075,-0.3096895 0.530608,-0.7212639 0.530608,-1.2347231 0,-0.4367929 -0.129121,-0.7838066 -0.388372,-1.0440669 -0.260261,-0.2592515 -0.604248,-0.3893816 -1.03398,-0.3893816 -0.424688,0 -0.785825,0.1472791 -1.086435,0.4418372 -0.300611,0.2945581 -0.483197,0.7263077 -0.548766,1.292222 L 7.8696283,4.103415 C 8.0290125,3.3145647 8.2701063,2.6840892 8.5929098,2.2119892 8.9157135,1.7398891 9.3646115,1.369674 9.9406135,1.0993261 10.516616,0.82897821 11.163231,0.69481303 11.878443,0.69481303 c 1.223626,0 2.205151,0.39039037 2.943563,1.17117117 0.609292,0.6385456 0.912929,1.3598095 0.912929,2.1637918 0,1.1409079 -0.624423,2.0518189 -1.874278,2.7317236 0.745475,0.1593842 1.341652,0.5174943 1.787525,1.0723127 0.446881,0.5558271 0.669817,1.2256443 0.669817,2.011469 0.001,1.1419177 -0.41561,2.1133537 -1.248846,2.9163277 z"
     id="path32910"
     style="fill:#00cc65;fill-opacity:1;stroke-width:1.00876" /></svg>
