<?xml version="1.0" encoding="UTF-8" standalone="no"?>
<!-- Uploaded to: SVG Repo, www.svgrepo.com, Generator: SVG Repo Mixer Tools -->

<svg
   width="800px"
   height="800px"
   viewBox="0 0 24 24"
   fill="none"
   version="1.1"
   id="svg5153"
   sodipodi:docname="4_necklace.svg"
   inkscape:version="1.2.2 (732a01da63, 2022-12-09)"
   xml:space="preserve"
   xmlns:inkscape="http://www.inkscape.org/namespaces/inkscape"
   xmlns:sodipodi="http://sodipodi.sourceforge.net/DTD/sodipodi-0.dtd"
   xmlns="http://www.w3.org/2000/svg"
   xmlns:svg="http://www.w3.org/2000/svg"><defs
     id="defs5157" /><sodipodi:namedview
     id="namedview5155"
     pagecolor="#505050"
     bordercolor="#eeeeee"
     borderopacity="1"
     inkscape:showpageshadow="0"
     inkscape:pageopacity="0"
     inkscape:pagecheckerboard="0"
     inkscape:deskcolor="#505050"
     showgrid="false"
     inkscape:zoom="0.518125"
     inkscape:cx="290.47045"
     inkscape:cy="534.62002"
     inkscape:window-width="1920"
     inkscape:window-height="1009"
     inkscape:window-x="-8"
     inkscape:window-y="-8"
     inkscape:window-maximized="1"
     inkscape:current-layer="svg5153" /><path
     d="m 12.000065,21.688417 c -1.197684,0 -2.1720932,-0.967056 -2.1720932,-2.155722 0,-0.641307 0.2835972,-1.218045 0.7329062,-1.613303 7.62631,6.458763 -1.0317292,-0.188058 -1.577616,-0.3887 0.015587,0.07993 -0.5593481,1.536673 -1.2762343,1.536673 -0.7168868,0 -1.2999854,-0.578707 -1.2999854,-1.290191 0,-0.493399 0.2805016,-0.922986 0.6915874,-1.139968 C 6.5219412,16.278444 5.9768465,15.850171 5.4756116,15.352605 1.877921,11.782138 1.877921,5.9724012 5.4755009,2.4019329 c 0.1293689,-0.1285018 0.3392756,-0.1285018 0.4686444,0 0.1294793,0.1283935 0.1294793,0.3367198 0,0.4651132 -3.3391738,3.3141183 -3.3391738,8.7063289 0,12.0204529 1.6694212,1.656731 3.8629455,2.485312 6.0558087,2.485533 2.193415,3.06e-4 4.386057,-0.82837 6.055809,-2.485533 3.339172,-3.314124 3.339172,-8.7063346 0,-12.0204529 -0.129479,-0.1283934 -0.129479,-0.3367192 0,-0.4651132 0.129368,-0.1285018 0.339275,-0.1285018 0.468644,0 3.59769,3.5704683 3.59769,9.3802051 0,12.9506721 -0.501346,0.497566 -1.046331,0.925617 -1.623021,1.284601 0.411087,0.216982 0.691588,0.646569 0.691588,1.139968 0,0.711372 -0.583098,1.290191 -1.299987,1.290191 -0.716885,0 -2.319801,-1.230982 -2.853849,-1.147973 0.449312,0.395152 0.732907,0.971996 0.732907,1.613303 1.1e-4,1.188666 -0.9743,2.155722 -2.171983,2.155722 z"
     stroke="#000000"
     stroke-width="2"
     stroke-linecap="round"
     stroke-linejoin="round"
     id="path5151"
     style="display:inline;stroke:#00cc65;stroke-width:2.58439;stroke-dasharray:none;stroke-opacity:1"
     sodipodi:nodetypes="ssccsscccccccccccccssccss" /><path
     d="M 12.259336,9.3440409 V 4.8649772 L 9.2383835,9.3440409 Z m 4.052003,2.1922501 h -1.620801 v 2.638632 H 12.259336 V 11.536291 H 6.8895443 V 9.3531919 L 12.581666,1.0193882 h 2.108872 v 8.3246527 h 1.620801 z"
     id="path35253"
     style="fill:#00cc65;fill-opacity:1;stroke-width:1.01682" /></svg>
