<?xml version="1.0" encoding="UTF-8" standalone="no"?>
<!-- Uploaded to: SVG Repo, www.svgrepo.com, Generator: SVG Repo Mixer Tools -->

<svg
   width="800px"
   height="800px"
   viewBox="0 0 24 24"
   fill="none"
   version="1.1"
   id="svg5153"
   sodipodi:docname="8X8.svg"
   inkscape:version="1.2.2 (732a01da63, 2022-12-09)"
   xml:space="preserve"
   xmlns:inkscape="http://www.inkscape.org/namespaces/inkscape"
   xmlns:sodipodi="http://sodipodi.sourceforge.net/DTD/sodipodi-0.dtd"
   xmlns="http://www.w3.org/2000/svg"
   xmlns:svg="http://www.w3.org/2000/svg"><defs
     id="defs5157" /><sodipodi:namedview
     id="namedview5155"
     pagecolor="#505050"
     bordercolor="#eeeeee"
     borderopacity="1"
     inkscape:showpageshadow="0"
     inkscape:pageopacity="0"
     inkscape:pagecheckerboard="0"
     inkscape:deskcolor="#505050"
     showgrid="false"
     inkscape:zoom="0.518125"
     inkscape:cx="89.746683"
     inkscape:cy="690.95296"
     inkscape:window-width="1920"
     inkscape:window-height="1009"
     inkscape:window-x="-8"
     inkscape:window-y="-8"
     inkscape:window-maximized="1"
     inkscape:current-layer="svg5153" /><path
     d="m 22.709578,8.2995416 c 0,-1.41184 -1.14816,-2.56 -2.56,-2.56 -1.41184,0 -2.56,1.14816 -2.56,2.56 0,0.5664 0.19072,1.08544 0.50368,1.50976 -0.50752,0.5196804 -0.82368,1.2281604 -0.82368,2.0102404 0,1.58784 1.29216,2.88 2.88,2.88 1.58784,0 2.88,-1.29216 2.88,-2.88 0,-0.78208 -0.31552,-1.49056 -0.82368,-2.0102404 0.31232,-0.42432 0.50368,-0.94336 0.50368,-1.50976 z m -2.56,-0.96 c 0.52992,0 0.96,0.43072 0.96,0.96 0,0.52928 -0.43008,0.96 -0.96,0.96 -0.52992,0 -0.96,-0.43072 -0.96,-0.96 0,-0.52928 0.43008,-0.96 0.96,-0.96 z m 0,5.4400004 c -0.52928,0 -0.96,-0.43072 -0.96,-0.96 0,-0.52928 0.43072,-0.96 0.96,-0.96 0.52928,0 0.96,0.43072 0.96,0.96 0,0.52928 -0.43072,0.96 -0.96,0.96 z"
     id="path6851"
     sodipodi:nodetypes="ccssscssscsssssssssss"
     style="stroke-width:0.64" /><path
     d="m -10.451146,0.9202413 c -0.30336,0 -0.59648,0.04736 -0.87168,0.13504 0.23488,-1.17631998 0.93952,-1.41503998 2.1516799,-1.41503998 0.53056,0 0.9599999,-0.43007999 0.9599999,-0.96000002 0,-0.52992 -0.4294399,-0.96 -0.9599999,-0.96 -2.7993599,0 -4.1599999,1.44448003 -4.1599999,4.416 v 1.664 c 0,1.5878399 1.29216,2.8799999 2.88,2.8799999 1.5878399,0 2.8799998,-1.29216 2.8799998,-2.8799999 0,-1.58784 -1.2921599,-2.88 -2.8799998,-2.88 z m 0,3.8399999 c -0.52928,0 -0.96,-0.43072 -0.96,-0.9599999 0,-0.52928 0.43072,-0.96 0.96,-0.96 0.5292799,0 0.9599999,0.43072 0.9599999,0.96 0,0.5292799 -0.43072,0.9599999 -0.9599999,0.9599999 z"
     id="path2770"
     style="stroke-width:0.64" /><path
     d="m 17.891436,9.2290471 c -0.30336,0 -0.59648,0.04736 -0.87168,0.13504 0.23488,-1.17632 0.93952,-1.41504 2.15168,-1.41504 0.53056,0 0.96,-0.43008 0.96,-0.96 0,-0.52992 -0.42944,-0.96 -0.96,-0.96 -2.79936,0 -4.16,1.44448 -4.16,4.4159999 v 1.664 c 0,1.58784 1.29216,2.88 2.88,2.88 1.58784,0 2.88,-1.29216 2.88,-2.88 0,-1.58784 -1.29216,-2.8799999 -2.88,-2.8799999 z m 0,3.8399999 c -0.52928,0 -0.96,-0.43072 -0.96,-0.96 0,-0.52928 0.43072,-0.96 0.96,-0.96 0.52928,0 0.96,0.43072 0.96,0.96 0,0.52928 -0.43072,0.96 -0.96,0.96 z"
     id="path2770-8"
     style="stroke-width:0.64" /><path
     d="m -6.6221468,-4.9753296 c -0.6975328,0 -1.3715202,0.062509 -2.0043032,0.1782362 0.5400729,-1.5525984 2.1602916,-1.8676796 4.9474795,-1.8676796 1.2199467,0 2.2073822,-0.567653 2.2073822,-1.2670826 0,-0.6994295 -0.9874355,-1.2670824 -2.2073822,-1.2670824 -6.4367265,0 -9.5653235,1.9065367 -9.5653235,5.8285796 v 2.1962764 c 0,2.09575442 2.971137,3.8012475 6.6221472,3.8012475 C -2.9711365,2.6271655 0,0.92167242 0,-1.174082 0,-3.2698365 -2.9711365,-4.9753296 -6.6221468,-4.9753296 Z m 0,5.06833004 c -1.2170035,0 -2.2073824,-0.56849771 -2.2073824,-1.26708244 0,-0.6985848 0.9903789,-1.2670825 2.2073824,-1.2670825 1.2170033,0 2.2073822,0.5684977 2.2073822,1.2670825 0,0.69858473 -0.9903789,1.26708244 -2.2073822,1.26708244 z"
     id="path3532"
     style="stroke-width:1.11494" /><path
     d="M 19.212942,1.8170232 H 4.787058 c -1.637762,0 -2.970035,1.3322728 -2.970035,2.9700349 V 22.182977 H 22.182977 V 4.7870581 c 0,-1.6377621 -1.332273,-2.9700349 -2.970035,-2.9700349 z m 0.42429,17.8202098 H 4.362768 V 4.7870581 c 0,-0.2342084 0.19093,-0.4242906 0.42429,-0.4242906 h 14.425884 c 0.23336,0 0.42429,0.1900822 0.42429,0.4242906 z M 15.394325,9.4542558 C 15.394325,7.5822852 13.87197,6.0599301 12,6.0599301 c -1.871971,0 -3.394325,1.5223551 -3.394325,3.3943257 0,0.7509952 0.2528761,1.4391952 0.6678321,2.0018032 -0.6729241,0.689048 -1.0921231,1.628428 -1.0921231,2.665394 0,2.105332 1.7132857,3.818618 3.818616,3.818618 2.105331,0 3.818616,-1.713286 3.818616,-3.818618 0,-1.036966 -0.418351,-1.976346 -1.092125,-2.665394 0.414109,-0.562608 0.667834,-1.250808 0.667834,-2.0018032 z M 12,8.1813837 c 0.702625,0 1.272872,0.5710948 1.272872,1.2728721 0,0.7017772 -0.570247,1.2728722 -1.272872,1.2728722 -0.702625,0 -1.272872,-0.571095 -1.272872,-1.2728722 0,-0.7017773 0.570247,-1.2728721 1.272872,-1.2728721 z m 0,7.2129413 c -0.701777,0 -1.272872,-0.571095 -1.272872,-1.272872 0,-0.701776 0.571095,-1.272872 1.272872,-1.272872 0.701776,0 1.272872,0.571096 1.272872,1.272872 0,0.701777 -0.571096,1.272872 -1.272872,1.272872 z"
     id="path6851-3"
     style="fill:#00cc66;fill-opacity:1;stroke-width:0.848569;stroke-dasharray:none" /></svg>
