<?xml version="1.0" encoding="utf-8"?>
<!-- Generator: Adobe Illustrator 26.5.1, SVG Export Plug-In . SVG Version: 6.00 Build 0)  -->
<svg version="1.1"
	 id="svg5153" xmlns:svg="http://www.w3.org/2000/svg" xmlns:inkscape="http://www.inkscape.org/namespaces/inkscape" xmlns:sodipodi="http://sodipodi.sourceforge.net/DTD/sodipodi-0.dtd"
	 xmlns="http://www.w3.org/2000/svg" xmlns:xlink="http://www.w3.org/1999/xlink" x="0px" y="0px" viewBox="0 0 800 800"
	 style="enable-background:new 0 0 800 800;" xml:space="preserve">
<style type="text/css">
	.st0{fill:none;stroke:#00CC66;stroke-width:40;stroke-linecap:round;stroke-linejoin:round;stroke-miterlimit:10;}
</style>
<sodipodi:namedview  bordercolor="#eeeeee" borderopacity="1" id="namedview5155" inkscape:current-layer="svg5153" inkscape:cx="-14.475271" inkscape:cy="673.58263" inkscape:deskcolor="#505050" inkscape:pagecheckerboard="0" inkscape:pageopacity="0" inkscape:showpageshadow="0" inkscape:window-height="1009" inkscape:window-maximized="1" inkscape:window-width="1920" inkscape:window-x="-8" inkscape:window-y="-8" inkscape:zoom="0.518125" pagecolor="#505050" showgrid="false">
	</sodipodi:namedview>
<rect x="243.7" y="145.2" class="st0" width="240" height="621.6"/>
<ellipse class="st0" cx="363.7" cy="234.4" rx="40.6" ry="40.5"/>
<path class="st0" d="M363.7,193.9c0-16.2,0-32.4,0-48.7c-0.2-7.6-0.6-44.3,27.7-75.2c24.5-26.9,57.4-32.3,70.6-34.4
	c7.2-1.1,65.1-9,110.7,30.6c32.1,27.9,38.8,62.5,47,105.1c1.3,6.5,21.9,118.1-17.8,142.2c-5.7,3.4-20.6,9.9-27,25.4
	c-3.1,7.3-3.2,14.2-2.9,18.9c0,0,0,0,0,0c0,0-0.1,2.3,3.3,26.2c-10,17.9-22.2,44.5-28.8,78.7c-8.6,44.6-3.9,81.9,0.9,104.6
	c50.3-4.4,100.6-8.7,151-13.1c0.5-25.1-2.1-67.1-23-112.9c-11.1-24.3-24.5-43.3-36.1-57.3c11.7-14.7,12.1-35.4,1.1-50.4
	c-10.7-14.5-29.8-20.5-47.1-14.7"/>
<line class="st0" x1="664.7" y1="375.9" x2="554" y2="375.9"/>
</svg>
