<?xml version="1.0" encoding="UTF-8"?>
<svg id="Layer_2" data-name="Layer 2" xmlns="http://www.w3.org/2000/svg" viewBox="0 0 798.23 392.74">
  <defs>
    <style>
      .cls-1 {
        fill: #e44298;
      }

      .cls-1, .cls-2 {
        stroke: #e44298;
        stroke-miterlimit: 10;
        stroke-width: 3px;
      }

      .cls-2 {
        fill: #f0efef;
      }
    </style>
  </defs>
  <g>
    <path class="cls-1" d="M795.65,236.34c-.37-1.02,.04-2.88-.99-3.21-1.02-.33-2.13,.13-3.03,.71-1.77,1.15-3.16,2.78-4.71,4.21-1.55,1.43-3.37,2.73-5.47,2.96-1.94,.21-5.06-.39-6.35-1.93-1.39-1.67-2.92-3.22-4.56-4.64-3.29-2.83-7.04-5.13-11.07-6.76-1.32-.53-2.67-1-4.03-1.39-.41-.12-1.12-.15-1.45-.44-.4-.36-.62-1.29-.84-1.78-1.21-2.67-2.33-5.41-3.64-8.04-.4-.88-.82-1.79-1.59-2.37-1.11-.84-2.67-.78-4.03-.44-4.72,1.16-8.31,4.86-11.64,8.41-2.66,2.83-5.31,5.66-7.97,8.49-2.36,2.51-4.99,4.85-5.79,8.34-.67,2.92-.02,5.96,.26,8.95,.71,7.4-3.63,10.95-9.67,14.25-10.32,5.62-21.73,10.6-33.42,9.37-6.22-.66-12.33-3.61-16.69-8.11-3.04-3.14-8.34-10.82-4.77-15.04,1.99-2.35,7.55-3.38,10.31-4.48,4.18-1.67,8.35-3.34,12.53-5.01,8.35-3.34,16.71-6.68,25.06-10.01,9.4-3.75,18.79-7.51,28.19-11.26,2.7-1.08,5.4-2.17,8.05-3.38,6.83-3.13,13.56-6.61,19.51-11.24,.03-.02,.05-.04,.08-.06,5.74-4.48,10.93-9.8,14.48-16.16,1.55-2.78,2.77-5.75,3.57-8.83,.7-2.7,1.07-5.49,1.05-8.28,0-.83,.25-3.2-.61-3.69-.88-.5-2.65,1.01-3.39,1.45-4.13,2.48-8.01,5.37-11.58,8.6-.32-2.98-.95-5.92-1.91-8.73-4.42-12.86-14.67-23.14-26.5-29.83-2.63-1.49-5.35-2.81-8.13-3.98-8.72-3.65-18.07-5.72-27.5-6.24-2.36-.13-4.73-.16-7.09-.1-1.23,.03-2.46,.09-3.68,.18-.71,.05-2.78,.61-3.38,.3-2.02-1.06,2.71-6.4,1.63-8.53-.9-1.78-3.44-1.7-5.39-1.29-14.54,3.08-28.03,10.31-39.43,19.84-9.01,7.54-16.75,16.51-23.39,26.18-10.53,15.33-19.01,32.11-21.55,50.74-1.58,11.6-.94,23.49,1.77,34.88-12.73-15.87-23.55-33.96-33.99-51.67,21.17-41.32,42.34-82.64,63.52-123.96,2.45-4.78,4.96-9.78,5.22-15.23,.31-6.66-2.87-13.08-7.25-17.83-2.32-2.52-4.99-4.67-7.8-6.63-2.59-1.81-5.76-2.97-7.19-5.82-3.21-6.42-6.89-12.55-11.27-18.26-1.69-2.2-3.58-4.42-6.18-5.4-2.37-.89-5.06-.61-7.42,.3-2.36,.91-4.44,2.41-6.44,3.96-5.13,4-9.85,8.53-14.08,13.47-4.04,4.72-7.98,9.14-7.96,15.65,.02,7.37,4.43,13.76,7.14,20.54,5.3,13.27,4,28.72-.64,42.28-4.64,13.55-12.38,25.6-20.03,37.49-1.93,3-3.93,6.05-6.16,8.84-3.75,4.7-10.92,2.91-12.38-3.07-2.28-9.33-3.82-18.69-2.88-28.25,1.13-11.42,5.71-23.48,1.11-33.86-1.81-4.07-4.99-7.37-8.84-9.57-2.45-1.4-5.15-2.37-7.92-2.92-2.72-.54-5.75-.05-8.34-.82-6.57-1.95-14-1.15-20.08,1.95-5.62,2.87-10.02,7.55-13.92,12.41-.97,1.21-1.84,2.56-2.88,3.71-.54,.59-1.32,1.21-2.03,1.58-.82,.44-1.17,.24-2.14,.1-1.76-.27-3.56-.33-5.34-.18-3.49,.29-6.91,1.37-9.91,3.19-3.91,2.37-6.96,5.83-10.02,9.16-2.78,3.03-6.83,5.79-8.49,9.63-2.07,4.79-.56,10.28,.53,15.38,.24,1.14,.46,2.28,.66,3.42,.43,2.49-1.9,4.55-4.33,3.82-1.49-.45-2.9-1.17-4.08-2.1-2.85-2.25-4.88-5.3-7.05-8.16-.97-1.28-2.42-2.55-3-3.99-.7-1.72-.89-3.49-1.85-5.16-1.92-3.34-4.98-5.85-7.98-8.28-3.39-2.74-7.17-5.62-11.52-5.55-3.54,.06-6.73,2.08-9.59,4.17-1.39,1.01-2.75,2.06-4.09,3.13-11.32,9.09-20.69,20.82-28.97,32.68-8.42,12.05-15.98,24.95-22.74,38-6.61,12.77-12.2,26.19-15.12,40.32-.66,3.17-1.19,6.37-1.55,9.58-.8,6.97-.84,14.14,.23,21.08-14.5,24.29-35.38,44.76-60.69,57.25-33.35,16.46-74.27,18.14-107.76,1.96-33.48-16.19-58.07-50.74-59.73-87.89-1.61-35.83,18.01-71.13,47.65-91.33,27.46-18.7,62.45-24.86,95.28-19.46,2.55,.42,4.18,2.98,3.45,5.46-.24,.8-.54,1.57-.89,2.31-2.14,4.47-5.82,8.11-6.88,13.18-.2,.95-.27,1.94-.18,2.91,.65,6.76,7.37,8.34,12.77,7.37,10.2-1.84,19.32-11.87,26.13-19.69,6.79-7.8,12.07-13.87,18.87-21.67,2.15-2.47,4.4-5.19,4.6-8.45,.17-2.71-1.17-5.34-3.01-7.34-1.84-2-4.17-3.47-6.44-4.95-16.62-10.87-31.87-23.85-45.26-38.52-.08-.08-.16-.17-.23-.25,2.87-1.7,5.03-4.54,5.9-7.76,.87-3.22,.43-6.78-1.2-9.69-1.05-1.88-2.8-3.59-4.95-3.7-2.4-.12-4.39,1.72-6.07,3.43-4.59,4.68-9.26,9.31-13.62,14.17-3.43,3.82-4.11,9.54-3,14.39,1.33,5.82,4.78,10.89,7.83,16.02,1.57,2.64,3.07,5.42,4.13,8.3,.69,1.88-.99,3.78-2.95,3.38h-.06c-1.19-.25-2.33-.67-3.41-1.23-34.6-18.04-78.39-13.87-112.24,5.68-34.38,19.86-59.1,53.76-73.83,90.63C3.01,205.31-2.82,241.76,5.09,276.1c10.57,45.92,45.95,84.51,89.5,102.5,43.55,17.99,94.13,16.15,137.85-1.45,7.21-2.9,14.26-6.22,21.09-9.93,33.4-18.1,59.06-47.16,73.6-81.78,6.24,3.62,13.18,6.13,20.27,7.4,15.52,2.77,31.63,.12,46.47-5.23,6.63-2.39,14.18-6.16,20.93-5.79,2.8,.15,4.81,2.76,4.28,5.51v.03c-1.07,5.57-2.3,11.4-.68,16.84,1.95,6.51,7.77,11.29,14.13,13.7,7.56,2.87,15.91,2.91,23.9,3.44,1.53,.1,3.07-.12,4.48-.67-1.1,4.15-1.36,8.36,.08,12.38,2.83,7.9,11.03,11.74,18.56,14.29,10.72,3.63,21.72,6.32,32.85,8.04,3.3,.51,6.7,.76,10.02,.3,3.51-.49,5.91-1.87,8.64-4.05,5.59-4.45,10.71-9.48,15.25-14.99,.95-1.16,1.9-2.37,2.3-3.81,.41-1.44,.15-3.17-1.01-4.12-.92-.76-2.23-.89-3.42-.75-1.19,.14-2.35,.51-3.54,.63-1.84,.18-3.68-.27-5.47-.71-1.85-.45-4.02-.68-5.77-1.41-1.43-.59-1.77-2.7-2.28-4.17-1.17-3.35-2.11-6.77-2.84-10.25-1.47-7.01-2.07-14.18-2.1-21.33-.06-12.82,1.68-25.58,3.88-38.19,.91-5.21,1.89-10.45,2.84-15.7,.96-5.35,5.48-9.23,10.54-8.78,.03,0,.07,0,.1,0,10.36,.97,17.79,10.93,23.08,20.52,12.6,22.84,20.65,48.55,23.41,74.92,.31,2.92,1.18,5.77,2.77,8.16,6.39,9.61,21.71,9.2,29.32,4.04l28.12-19.08c.5-.34,1.05-.75,1.61-1.25,.57-.5,1.05-1,1.44-1.45,2.48,1.18,6.09,2.68,10.6,3.82,11.17,2.81,20.22,.86,30.1-.14,9-.92,17.81-3.35,26.09-6.97,11.62-5.07,22.18-12.4,31.45-21.01,4.68-4.35,9.05-9.04,13.08-14,1.66-2.04,3.03-4.82,4.85-6.64,1.99-2,2.02-10.5,4.45-11.98,3.85-2.35,7.42-5.11,11.06-7.81,3.56-2.65,5.88-.15,8.42-3.78,2.54-3.64,7.76-4.89,6.23-9.06Zm-392.85-24.79c-.28,8.65-3.33,17.28-8.76,22.86-4.36,4.48-10.04,6.83-15.73,7.11-5.69,.28-11.38-1.45-16.53-4.39-5.84-3.34-11.25-8.52-13.96-15.67-3.86-10.21-1.37-22.86,4.54-31.48,8-11.68,24.66-21.55,36.59-12.78,3.25,2.39,5.82,5.97,7.91,9.85,3.89,7.24,6.23,15.86,5.94,24.51Zm81.28,42.31c-.01,.15,.15,11.31-2.95,25.47-2.24,10.22-5.2,17.6-11.69,21.31-1.42,.81-2.71,1.28-3.61,1.55-2.03-1.03-3.54-2.07-4.5-2.8-33.15-25-5.73-114.36-1.85-124.68,.39-1.04,2.68-7.42,5.43-16.27,1.02-3.27,1.93-6.57,2.63-9.92,1.86-8.95,2.06-18.53-1.46-26.97-.69-1.66-1.55-3.25-2.52-4.76,3.76,1.45,7.75,2.7,10.98,5.05,8.68,6.33,10.27,19.12,10.83,30.35,.51,12.01,.93,24,.99,36.02,.12,21.91-.64,43.82-2.28,65.66Zm159.3-64.57c1.8-8.19,6.88-14.19,13.46-18.26,8.93-5.53,20.63-7.51,30.67-6.62,4.68,.41,9.52,1.4,13.24,4.27,4.67,3.6,6.88,9.87,6.29,15.74-1.43,14.28-15.54,22.25-27.7,26.49-4.75,1.65-9.65,3.04-14.67,3.22s-10.22-.97-14.24-3.97c-6.22-4.64-8.7-13.28-7.04-20.85Z"/>
    <path class="cls-1" d="M256.62,157.94c-15.87,14.52-31.75,29.03-47.62,43.55-5.39,4.93-10.88,9.92-17.47,13.06-6.59,3.14-14.57,4.19-21.15,1.04-3.48-1.67-6.31-4.36-8.94-7.13-.94-.99-3.14-2.59-3.26-4-.07-.79,.54-1.76,.53-2.63-.01-.81-.19-1.62-.45-2.38-.65-1.86-1.72-3.62-1.88-5.59-.13-1.65,.4-3.27,.71-4.89,.31-1.62,.36-3.44-.59-4.79-1.26-1.78-3.91-2.08-5.94-1.28-2.03,.8-3.59,2.45-5.08,4.05-4.03,4.32-8.11,8.61-12.02,13.01-3.36,3.79-5.92,7.79-6.24,13.01-.53,8.64,3.87,16.83,9.1,23.72,8.98,11.84,20.87,21.46,34.31,27.79,6.55,3.08,14.12,5.48,21.38,3.77,7.01-1.65,12.78-7.23,17.82-12.03,24.23-23.06,47.25-47.37,70.53-71.34,4.83-4.99,9.76-10.22,12.13-16.75,2.37-6.53,1.53-14.74-3.83-19.16-4.69-3.86-11.65-3.87-17.29-1.6-5.63,2.27-10.25,6.45-14.73,10.55Z"/>
  </g>
  <g>
    <path class="cls-2" d="M791.6,224.3c-5.38-6.9-13.11-11.92-21.59-14.04-8.48-2.12-17.67-1.31-25.65,2.26-4.54,2.03-9.01,5.37-10.13,10.22-.67,2.92-.02,5.96,.26,8.95,.71,7.4-3.63,10.95-9.67,14.25-10.32,5.62-21.73,10.6-33.42,9.37-6.22-.66-12.33-3.61-16.69-8.11-3.04-3.14-8.34-10.81-4.77-15.04,1.99-2.35,7.55-3.38,10.31-4.48,4.18-1.67,8.35-3.34,12.53-5.01,8.35-3.34,16.71-6.68,25.06-10.01,9.4-3.75,18.79-7.51,28.19-11.26,7.8-3.12,15.84-6.39,21.78-12.33,9.62-9.62,11.88-25.12,7.46-37.98s-14.67-23.14-26.5-29.83c-15.06-8.52-32.92-11.74-50.11-9.8-17.19,1.94-33.69,8.93-47.52,19.32-21.53,16.17-36.65,40.91-40.29,67.59-1.58,11.6-.94,23.49,1.77,34.88-12.73-15.87-23.55-33.96-33.99-51.67,21.17-41.32,42.34-82.64,63.52-123.96,2.45-4.78,4.96-9.78,5.22-15.23,.31-6.66-2.87-13.08-7.25-17.83-4.37-4.75-9.87-8.1-15.29-11.4-9.49-5.77-19.56-11.71-30.47-11.63-10.92,.07-22.59,8.62-22.56,20.32,.02,7.37,4.43,13.76,7.14,20.54,5.3,13.27,4,28.72-.64,42.28-4.64,13.55-12.38,25.6-20.03,37.49-1.93,3-3.93,6.05-6.16,8.84-3.75,4.7-10.92,2.91-12.38-3.07-2.28-9.33-3.82-18.69-2.88-28.25,1.13-11.42,5.71-23.48,1.11-33.86-4.23-9.55-15.21-13.87-25.04-12.91s-18.8,6.12-27.47,11.16c-6.82,3.97-13.89,8.17-17.23,16.23-1.26,3.05-1.63,6.46-.85,9.65-3.35-1.86-7.01-3.15-10.81-3.71-7.13-1.04-15.65,1.19-18.51,7.8-2.07,4.79-.56,10.28,.53,15.38,.24,1.14,.46,2.28,.66,3.42,.43,2.49-1.9,4.55-4.33,3.82-1.49-.45-2.9-1.17-4.08-2.1-4.05-3.19-6.46-8.01-10.02-11.74-6.95-7.3-18-9.8-27.89-7.86s-18.67,7.82-25.67,15.07c-7,7.25-12.42,15.85-17.7,24.44-14.67,23.85-28.98,49.01-32.18,76.83-.8,6.97-.84,14.14,.23,21.08-14.5,24.29-35.38,44.76-60.69,57.25-33.35,16.46-74.27,18.14-107.76,1.96-33.48-16.19-58.07-50.74-59.73-87.89-1.61-35.83,18.01-71.13,47.65-91.33,27.46-18.7,62.45-24.86,95.28-19.46,2.55,.42,4.19,2.98,3.45,5.46-.24,.8-.54,1.57-.89,2.31-2.14,4.47-5.82,8.11-6.88,13.18-.2,.95-.27,1.94-.18,2.91,.65,6.76,7.37,8.34,12.77,7.37,10.2-1.84,19.32-11.87,26.13-19.69,6.8-7.8,12.07-13.87,18.87-21.67,2.15-2.47,4.4-5.19,4.6-8.45,.17-2.71-1.17-5.34-3.01-7.34-1.84-2-4.17-3.47-6.44-4.95-16.62-10.87-31.87-23.85-45.26-38.52-2.4-2.63-4.88-5.42-8.22-6.68-3.26-1.24-7.12-.79-10,1.17-4.94,3.35-6.3,10.28-4.97,16.1,1.33,5.82,4.78,10.89,7.83,16.02,1.57,2.64,3.07,5.42,4.13,8.3,.69,1.88-.99,3.78-2.95,3.38h-.06c-1.19-.25-2.33-.67-3.41-1.23-34.6-18.04-78.39-13.87-112.24,5.68-34.38,19.86-59.1,53.76-73.83,90.63-13.08,32.73-18.91,69.18-11.01,103.52,10.57,45.92,45.95,84.51,89.5,102.5,43.55,17.99,94.13,16.15,137.85-1.45,7.21-2.9,14.26-6.22,21.09-9.93,33.4-18.1,59.06-47.16,73.6-81.78,6.24,3.62,13.18,6.13,20.27,7.4,15.52,2.77,31.63,.12,46.47-5.23,6.63-2.39,14.18-6.16,20.93-5.79,2.8,.15,4.81,2.76,4.28,5.51v.03c-1.07,5.57-2.3,11.4-.68,16.84,1.95,6.51,7.77,11.29,14.13,13.7,7.56,2.87,15.91,2.91,23.9,3.44,1.53,.1,3.07-.12,4.48-.67-1.1,4.15-1.36,8.36,.08,12.38,2.83,7.9,11.03,11.74,18.56,14.29,10.72,3.63,21.72,6.32,32.85,8.04,7.23,1.11,16.13,1.02,19.95-5.64,3.99-6.94-.39-15.64-3.54-23.06-9.7-22.89-7.08-49.43-2.75-74.14,.91-5.21,1.89-10.45,2.84-15.7,.96-5.35,5.48-9.23,10.54-8.78,.03,0,.07,0,.1,0,10.36,.97,17.79,10.93,23.08,20.52,12.6,22.84,20.65,48.55,23.41,74.92,.31,2.92,1.18,5.77,2.77,8.16,6.39,9.61,16.76,4.41,24.37-.75l28.12-19.08c1.13-.76,2.16-1.67,3.06-2.71,14.12,6.88,30.03,10.05,45.65,8.46,9-.92,17.81-3.35,26.09-6.97,11.62-5.07,22.18-12.4,31.46-21.01,4.68-4.35,9.05-9.04,13.08-14,1.66-2.04,3.03-4.82,4.85-6.64,1.99-2,5.65-2.57,8.08-4.05,2.73-1.67,5.16-3.98,6.44-6.91,2.57-5.93-.15-12.89-4.12-17.98Zm-373.08-28.48c-.28,8.65-3.33,17.28-8.76,22.86-4.36,4.48-10.04,6.83-15.73,7.11-5.69,.28-11.38-1.45-16.53-4.39-5.84-3.34-11.25-8.52-13.96-15.67-3.86-10.21-1.37-22.86,4.54-31.48,8-11.68,24.66-21.55,36.59-12.78,3.25,2.39,5.82,5.97,7.91,9.85,3.89,7.24,6.23,15.86,5.94,24.51Zm81.28,42.31c-.6,8.02,.19,18.11-2.95,25.47-4.23,9.9-10.05,19.34-14.99,28.85-.28,.55-.57,1.1-.85,1.66-.26-.73-.55-1.46-.83-2.16-17.02-41.94-18.82-89.87-4.99-132.97,2.79-8.7,6.21-17.24,8.06-26.19,1.86-8.95,2.06-18.53-1.46-26.97-.69-1.66-1.55-3.25-2.52-4.76,3.76,1.45,7.75,2.7,10.98,5.05,8.68,6.33,10.27,19.12,10.83,30.35,.51,12.01,.93,24,.99,36.02,.12,21.91-.64,43.82-2.28,65.66Zm159.3-64.57c1.8-8.19,6.88-14.19,13.46-18.26,8.93-5.53,20.63-7.51,30.67-6.62,4.68,.41,9.52,1.4,13.24,4.27,4.67,3.6,6.88,9.87,6.29,15.74-1.43,14.28-15.54,22.25-27.7,26.49-4.75,1.65-9.65,3.04-14.67,3.22-5.02,.17-10.22-.97-14.24-3.97-6.22-4.64-8.7-13.28-7.04-20.85Z"/>
    <path class="cls-2" d="M272.35,142.22c-15.87,14.52-31.75,29.03-47.62,43.55-5.39,4.93-10.88,9.92-17.47,13.06-6.59,3.14-14.57,4.19-21.15,1.04-5.08-2.43-8.74-6.99-12.63-11.06s-8.63-7.96-14.25-8.3c-8.64-.52-15.76,8.12-16.29,16.75-.53,8.64,3.87,16.83,9.1,23.72,8.98,11.84,20.87,21.46,34.31,27.79,6.55,3.08,14.12,5.48,21.38,3.77,7.01-1.65,12.78-7.23,17.82-12.03,24.23-23.06,47.25-47.37,70.53-71.34,4.84-4.99,9.76-10.22,12.13-16.75,2.37-6.53,1.53-14.74-3.83-19.16-4.69-3.86-11.65-3.87-17.29-1.6-5.63,2.27-10.25,6.45-14.73,10.55Z"/>
  </g>
</svg>