<?xml version="1.0" encoding="utf-8"?>
<!-- Generator: Adobe Illustrator 27.6.1, SVG Export Plug-In . SVG Version: 6.00 Build 0)  -->
<svg version="1.1" id="Layer_1" xmlns="http://www.w3.org/2000/svg" xmlns:xlink="http://www.w3.org/1999/xlink" x="0px" y="0px"
	 viewBox="0 0 936 936" style="enable-background:new 0 0 936 936;" xml:space="preserve">
<style type="text/css">
	.st0{fill:none;stroke:#FFFFFF;stroke-width:30.2374;stroke-miterlimit:10;}
	.st1{fill:none;stroke:#FFFFFF;stroke-width:30.2374;stroke-linecap:round;stroke-miterlimit:10;}
	.st2{fill:none;stroke:#FFFFFF;stroke-width:31.3573;stroke-linecap:round;stroke-miterlimit:10;}
	.st3{fill:none;stroke:#FFFFFF;stroke-width:25.7578;stroke-linecap:round;stroke-miterlimit:10;}
</style>
<g>
	<circle class="st0" cx="658.25" cy="213.17" r="39.05"/>
	<path class="st1" d="M732.54,269.74c-21.44,20.73-11.8,58.02,16.94,65.79c27.55,7.45,54.18-17.6,48.43-45.55
		c-3.05-14.82-14.7-26.76-29.44-30.18"/>
	<path class="st2" d="M813.94,457.9c29.09,6.57,54.99-21.94,45.74-50.24c-8.88-27.13-44.42-35.67-64.64-15.53
		c-10.72,10.68-14.32,26.97-9.1,41.17"/>
	<path class="st1" d="M309.85,780.68c0,0,172.62,114.78,346.15-14.46"/>
	<path class="st1" d="M227.86,707.51c0,0-87.53-89.51-68.46-231.82c14.5-108.19,81.99-203.4,182.57-245.82
		c20.2-8.52,36.78-15.91,61.74-22.35c33-8.52,55.02-16.14,17.03,25.01c-12.77,13.84-22.52,32.89-10.64,52.69
		c16.27,27.11,51.41,17.39,71.51-0.68c20.1-18.08,87.05-83.37,97.74-98.84c25.01-36.19-15.44-58.63-53.67-94.87
		c0,0-27.6-25.58-63.95-55.22c-48.97-39.92-119.22,18.1-28.74,83.56"/>
	<path class="st1" d="M323.38,142.6c0,0,35.02-14.99,67.56-18.6"/>
	<path class="st2" d="M254.07,176.36c0,0,16.27-11.59,33.44-16.11"/>
	<path class="st1" d="M200.75,220.37c0,0-117.78,97.85-129.24,255.77C63.07,592.43,103,808.4,336.32,887.36
		c243.14,82.29,375.97-53.32,407.61-83.15c31.63-29.82,87.3-97.29,106.42-159.52c27.06-88.04,12.58-106.64-2.21-117.84
		c-13.17-9.98-50.21-11.37-61.78,22.23c-14.33,41.63-7.95,36.84-24.71,80.89c-8.64,22.69-26.76,50.42-26.76,50.42"/>
	<line class="st3" x1="349.54" y1="538.47" x2="358.85" y2="547.77"/>
	<path class="st1" d="M649.94,453.62c-65.63,67.92-111.51,112.24-189.64,193.51c-9.94,10.34-23.59,25.63-45.94,25.55
		c-11.25-0.04-22.89-2.66-37.18-13.99c-33.24-26.33-38.95-33.25-64.13-59.82c-17.47-18.43-37.58-38.55-40.87-57.39
		c-1.88-10.74,0.08-29,21.37-36.45c12.05-4.22,23.95,0,34.06,11.71 M381.36,571.56c13.51,14.42,21.43,29.55,38.23,13.87
		c25.76-25.76,53.25-52.16,77.8-78.01c35.53-37.4,70.12-71,101.61-105.66 M645.08,458.64c39.51-40.28,28.87-60.98,16.23-72.29
		c-12.47-11.15-35.66-16.5-68.06,21.73"/>
</g>
</svg>
