<?xml version="1.0" encoding="utf-8"?>
<!-- Generator: Adobe Illustrator 27.0.0, SVG Export Plug-In . SVG Version: 6.00 Build 0)  -->
<svg version="1.1" id="Layer_6" xmlns="http://www.w3.org/2000/svg" xmlns:xlink="http://www.w3.org/1999/xlink" x="0px" y="0px"
	 viewBox="0 0 400 400" style="enable-background:new 0 0 400 400;" xml:space="preserve">
<style type="text/css">
	.st0{fill:none;stroke:#00CC66;stroke-width:22;stroke-linecap:round;stroke-linejoin:round;}
</style>
<polygon class="st0" points="378.9,376.8 340,376.8 301.3,376.8 262.5,376.8 223.7,376.8 184.8,376.8 146,376.8 107.2,376.8 
	68.4,376.8 68.4,338.1 68.4,299.4 68.4,260.7 68.4,222 68.4,183.2 68.4,144.5 68.4,105.8 68.4,67.1 107.2,67.1 146,67.1 184.8,67.1 
	223.7,67.1 262.5,67.1 301.3,67.1 340,67.1 378.9,67.1 378.9,105.8 378.9,144.5 378.9,183.2 378.9,222 378.9,260.7 378.9,299.4 
	378.9,338.1 "/>
<line class="st0" x1="223.7" y1="67.6" x2="223.7" y2="376.1"/>
<line class="st0" x1="69.4" y1="222" x2="378.9" y2="222"/>
<path class="st0" d="M172.2,70.5c0,33.6,0,67.2,0,100.8c-31.9,0-63.8,0-95.6,0"/>
<path class="st0" d="M172.2,171.4c16.3,16.9,32.6,33.8,48.9,50.6"/>
<path class="st0" d="M19.7,21.7c-1.1,101.1-2.1,202.2-3.2,303.4c16.4,16.9,32.7,33.7,49.2,50.6"/>
<path class="st0" d="M326.3,69.9c0,33.8,0,67.7,0,101.5c-32.5,0.1-65.1,0.1-97.6,0.2"/>
<path class="st0" d="M326.3,171.4c16.5,16.9,33,33.8,49.5,50.6"/>
<path class="st0" d="M171.6,324.6c16.3,17.4,32.5,34.6,48.8,52"/>
<path class="st0" d="M326.3,324.6c16.3,17.4,32.5,34.6,48.8,52"/>
<path class="st0" d="M19.7,21.7c107.2,0.9,214.4,1.8,321.7,2.7l36.1,38.2"/>
<path class="st0" d="M176.7,3.6"/>
<path class="st0" d="M215.5,39.7"/>
<path class="st0" d="M173.1,223.1c0,33.8,0,67.7,0,101.5c-32.5,0.1-65.1,0.1-97.6,0.2"/>
<path class="st0" d="M326.3,223.1c0,33.8,0,67.7,0,101.5c-32.5,0.1-65.1,0.1-97.6,0.2"/>
</svg>
