<?xml version="1.0" encoding="utf-8"?>
<!-- Generator: Adobe Illustrator 26.5.1, SVG Export Plug-In . SVG Version: 6.00 Build 0)  -->
<svg version="1.1" id="Layer_6" xmlns="http://www.w3.org/2000/svg" xmlns:xlink="http://www.w3.org/1999/xlink" x="0px" y="0px"
	 viewBox="0 0 400 400" style="enable-background:new 0 0 400 400;" xml:space="preserve">
<style type="text/css">
	.st0{fill:none;stroke:#FFFFFF;stroke-width:22;stroke-linecap:round;stroke-linejoin:round;}
</style>
<polygon class="st0" points="350.9,354 317.8,354 284.8,354 251.7,354 218.6,354 185.5,354 152.4,354 119.3,354 86.2,354 86.2,321 
	86.2,288 86.2,255 86.2,222 86.2,189 86.2,156 86.2,123 86.2,90 119.3,90 152.4,90 185.5,90 218.6,90 251.7,90 284.8,90 317.8,90 
	350.9,90 350.9,123 350.9,156 350.9,189 350.9,222 350.9,255 350.9,288 350.9,321 "/>
<line class="st0" x1="218.6" y1="90.4" x2="218.6" y2="353.4"/>
<line class="st0" x1="87.1" y1="222" x2="350.9" y2="222"/>
<path class="st0" d="M174.7,92.9c0,28.6,0,57.3,0,85.9c-27.2,0-54.4,0-81.5,0"/>
<path class="st0" d="M174.7,178.9c13.9,14.4,27.8,28.8,41.7,43.1"/>
<path class="st0" d="M44.7,51.3c-0.9,86.2-1.8,172.4-2.7,258.6C56,324.3,69.9,338.6,83.9,353"/>
<path class="st0" d="M306.1,92.4c0,28.8,0,57.7,0,86.5c-27.7,0.1-55.5,0.1-83.2,0.2"/>
<path class="st0" d="M306.1,178.9c14.1,14.4,28.1,28.8,42.2,43.1"/>
<path class="st0" d="M174.2,309.5c13.9,14.8,27.7,29.5,41.6,44.3"/>
<path class="st0" d="M306.1,309.5c13.9,14.8,27.7,29.5,41.6,44.3"/>
<path class="st0" d="M44.7,51.3c91.4,0.8,182.8,1.5,274.2,2.3l30.8,32.6"/>
<path class="st0" d="M178.6,35.9"/>
<path class="st0" d="M211.6,66.6"/>
<path class="st0" d="M175.5,223c0,28.8,0,57.7,0,86.5c-27.7,0.1-55.5,0.1-83.2,0.2"/>
<path class="st0" d="M306.1,223c0,28.8,0,57.7,0,86.5c-27.7,0.1-55.5,0.1-83.2,0.2"/>
</svg>
