<?xml version="1.0" encoding="utf-8"?>
<!-- Generator: Adobe Illustrator 26.5.1, SVG Export Plug-In . SVG Version: 6.00 Build 0)  -->
<svg version="1.1"
	 id="Layer_1" xmlns:sodipodi="http://sodipodi.sourceforge.net/DTD/sodipodi-0.dtd" xmlns:svg="http://www.w3.org/2000/svg" xmlns:inkscape="http://www.inkscape.org/namespaces/inkscape" inkscape:version="1.2.2 (732a01da63, 2022-12-09)"
	 xmlns="http://www.w3.org/2000/svg" xmlns:xlink="http://www.w3.org/1999/xlink" x="0px" y="0px" viewBox="0 0 400 400"
	 style="enable-background:new 0 0 400 400;" xml:space="preserve">
<style type="text/css">
	.st0{fill:#FCFCFC;}
</style>
<sodipodi:namedview  bordercolor="#eeeeee" borderopacity="1" id="namedview142" inkscape:current-layer="Layer_1" inkscape:cx="119.48175" inkscape:cy="231.77662" inkscape:deskcolor="#505050" inkscape:pagecheckerboard="0" inkscape:pageopacity="0" inkscape:showpageshadow="0" inkscape:window-height="1009" inkscape:window-maximized="1" inkscape:window-width="1920" inkscape:window-x="-8" inkscape:window-y="-8" inkscape:zoom="0.55657038" pagecolor="#505050" showgrid="false">
	</sodipodi:namedview>
<path id="path139" class="st0" d="M39.5,113.6c-9.5-11-14-24.5-13-38.5c1-14,7.4-26.7,17.9-35.9c10.6-9.2,24-13.6,38-12.7
	c13.9,1,26.7,7.4,35.8,17.9l55.5,66.2l-20.5,20.5l-57-68c-3.9-4.6-9.6-7.4-15.9-7.8C74,55,68.1,56.9,63.3,61
	c-4.7,4.1-7.6,9.8-8,16.1c-0.4,6.3,1.6,12.3,5.6,17l62.6,66.7l-20.4,20.5L39.5,113.6z M373.6,373.6h-91.7
	c-31.3,0-67.7-28.5-67.7-65.1c0-34.1,31-65.1,65-65.1c61.7,0,81.5,78.7,89.9,112.2L373.6,373.6z M336.3,344.7
	c-11.1-38.2-27.2-72.4-57.1-72.4c-16.3,0-36.1,16.1-36.1,36.2c0,19.1,21.7,36.2,38.8,36.2H336.3L336.3,344.7z M357.7,115.8
	L100.5,373.6h-74v-74.2L283.7,41.6c19.7-19.8,54.3-19.8,74,0h0c9.9,9.9,15.3,23.1,15.3,37.1S367.6,105.9,357.7,115.8L357.7,115.8z
	 M279.7,153l-33.2-33.2L55.4,311.5v33.2h33.1L279.7,153L279.7,153z M344.2,78.7c0-6.3-2.4-12.2-6.8-16.6c-8.8-8.8-24.3-8.8-33.1,0
	L267,99.3l33.2,33.2l37.2-37.3C341.8,90.9,344.2,85,344.2,78.7L344.2,78.7z"/>
</svg>
