<?xml version="1.0" encoding="UTF-8" standalone="no"?>
<svg
   id="Layer_1"
   data-name="Layer 1"
   viewBox="0 0 18.75 18.75"
   width="400"
   height="400"
   version="1.1"
   sodipodi:docname="designer_green.svg"
   inkscape:version="1.2.2 (732a01da63, 2022-12-09)"
   xmlns:inkscape="http://www.inkscape.org/namespaces/inkscape"
   xmlns:sodipodi="http://sodipodi.sourceforge.net/DTD/sodipodi-0.dtd"
   xmlns="http://www.w3.org/2000/svg"
   xmlns:svg="http://www.w3.org/2000/svg">
  <defs
     id="defs144" />
  <sodipodi:namedview
     id="namedview142"
     pagecolor="#505050"
     bordercolor="#eeeeee"
     borderopacity="1"
     inkscape:showpageshadow="0"
     inkscape:pageopacity="0"
     inkscape:pagecheckerboard="0"
     inkscape:deskcolor="#505050"
     showgrid="false"
     inkscape:zoom="0.55657038"
     inkscape:cx="121.27846"
     inkscape:cy="231.77662"
     inkscape:window-width="1920"
     inkscape:window-height="1009"
     inkscape:window-x="-8"
     inkscape:window-y="-8"
     inkscape:window-maximized="1"
     inkscape:current-layer="Layer_1" />
  <path
     d="M 0.7110644,4.7142028 C 0.19645087,4.1195232 -0.04604126,3.3896537 0.00697953,2.6347779 0.06078004,1.8791206 0.40385572,1.1914491 0.97382918,0.69679442 1.5445824,0.20135834 2.2681602,-0.0393267 3.0260455,0.01303011 3.7784729,0.06694981 4.465404,0.41078558 4.9589651,0.98202182 L 7.9554193,4.5563509 6.8490002,5.6652213 3.7730149,1.9955559 C 3.560152,1.7494007 3.2529433,1.5954561 2.9153257,1.5720127 2.5738094,1.5501323 2.2502267,1.6556274 1.9960388,1.8767763 1.7402914,2.0987066 1.5866871,2.4073774 1.5625159,2.7449616 1.5383446,3.0841087 1.6467253,3.4107527 1.8673854,3.6655037 L 5.2497997,7.2671834 4.1472792,8.3721465 Z M 18.749828,18.755987 h -4.952765 c -1.690428,0 -3.655316,-1.536321 -3.655316,-3.516502 0,-1.840303 1.672494,-3.516503 3.508729,-3.516503 3.334072,0 4.399945,4.247154 4.8553,6.060887 z m -2.017129,-1.56289 c -0.597264,-2.06067 -1.466649,-3.907225 -3.082223,-3.907225 -0.882641,0 -1.949294,0.871311 -1.949294,1.953613 0,1.033851 1.171915,1.953612 2.095881,1.953612 h 2.934856 z M 17.892139,4.8337639 3.9999126,18.755987 H 0.0054201 V 14.751863 L 13.896866,0.82964006 c 1.065874,-1.06823522 2.930179,-1.06745377 3.994493,0 h 7.8e-4 c 0.532547,0.53528974 0.82572,1.24562324 0.82572,2.00206194 0,0.7564387 -0.293173,1.468335 -0.82728,2.0020619 z M 13.680105,6.8444217 11.889874,5.0502241 1.564855,15.399681 v 1.793416 H 3.3543066 L 13.679325,6.8452031 Z M 17.159204,2.831702 c 0,-0.3391471 -0.130992,-0.6579767 -0.369586,-0.8970988 -0.477187,-0.4774629 -1.313044,-0.4774629 -1.789451,0 L 12.993174,3.9460424 14.783405,5.74024 16.790398,3.7288008 c 0.238593,-0.2391222 0.369586,-0.5571703 0.369586,-0.8963174 z"
     id="path139"
     style="stroke-width:0.780581;fill:#00cc66;fill-opacity:1" />
</svg>
