<?xml version="1.0" encoding="utf-8"?>
<!-- Generator: Adobe Illustrator 27.0.0, SVG Export Plug-In . SVG Version: 6.00 Build 0)  -->
<svg version="1.1"
	 id="svg5153" xmlns:svg="http://www.w3.org/2000/svg" xmlns:inkscape="http://www.inkscape.org/namespaces/inkscape" xmlns:sodipodi="http://sodipodi.sourceforge.net/DTD/sodipodi-0.dtd" inkscape:version="1.2.2 (732a01da63, 2022-12-09)"
	 xmlns="http://www.w3.org/2000/svg" xmlns:xlink="http://www.w3.org/1999/xlink" x="0px" y="0px" viewBox="0 0 800 800"
	 style="enable-background:new 0 0 800 800;" xml:space="preserve">
<style type="text/css">
	.st0{fill:#00CC66;}
	.st1{fill:none;stroke:#00C91C;stroke-width:40;stroke-miterlimit:10;}
	.st2{fill:none;stroke:#00C91C;stroke-width:40;stroke-linecap:round;stroke-linejoin:round;stroke-miterlimit:10;}
	.st3{fill:none;stroke:#00C91C;stroke-width:40;stroke-linecap:round;stroke-miterlimit:10;}
</style>
<g>
	
		<sodipodi:namedview  bordercolor="#eeeeee" borderopacity="1" id="namedview5155" inkscape:current-layer="g28115" inkscape:cx="189.69909" inkscape:cy="350.73861" inkscape:deskcolor="#505050" inkscape:pagecheckerboard="0" inkscape:pageopacity="0" inkscape:showpageshadow="0" inkscape:window-height="1009" inkscape:window-maximized="1" inkscape:window-width="1920" inkscape:window-x="-8" inkscape:window-y="-8" inkscape:zoom="0.7327394" pagecolor="#505050" showgrid="false">
		</sodipodi:namedview>
	<g id="g28115" transform="matrix(0.05106383,0,0,0.05106383,-4.9999999e-8,2.6573255)">
		<g id="g32850" transform="matrix(0.79738769,0,0,0.79738769,30.868751,-21.169743)">
			<g id="g32848">
			</g>
		</g>
		<g id="g32868" transform="matrix(0.90112728,0,0,0.79738769,30.868751,-21.169743)">
			<g id="g32866">
				<path id="path32864" sodipodi:nodetypes="ss" class="st0" d="M1011.6,10185.9C1071.3,10185.9,887.9,10185.9,1011.6,10185.9z"/>
			</g>
		</g>
		<g id="g32880" transform="matrix(0.90112728,0,0,0.79738769,30.868751,-21.169743)">
			<g id="g32878">
			</g>
		</g>
	</g>
	<g>
		<path class="st1" d="M544.8,630.6c5.1,2,13.3,1.6,18.2-0.9l202-104.7c4.9-2.5,8.9-9.1,8.9-14.6V246c0-5.5-4.2-11.7-9.3-13.8
			L264.1,28.5c-5.1-2.1-13.1-1.4-17.7,1.6L71.3,141.3c-4.6,2.9-8.4,9.9-8.4,15.4v272.1c0,5.5,4.2,11.7,9.3,13.7L544.8,630.6z"/>
	</g>
	<polyline class="st2" points="762.2,249.4 536.7,336.5 546.5,546.9 	"/>
	<line class="st3" x1="170.7" y1="175.6" x2="536.7" y2="336.5"/>
</g>
</svg>
