<?xml version="1.0" encoding="utf-8"?>
<!-- Generator: Adobe Illustrator 26.5.1, SVG Export Plug-In . SVG Version: 6.00 Build 0)  -->
<svg version="1.1" id="Layer_1" xmlns="http://www.w3.org/2000/svg" xmlns:xlink="http://www.w3.org/1999/xlink" x="0px" y="0px"
	 viewBox="0 0 25.2 25.2" style="enable-background:new 0 0 25.2 25.2;" xml:space="preserve">
<style type="text/css">
	.st0{fill:#010101;}
	.st1{fill:#FFFFFF;}
</style>
<g>
	<path d="M23.4,1.8v21.6H1.8V1.8H23.4 M23.4,0.8H1.8c-0.55,0-1,0.45-1,1v21.6c0,0.55,0.45,1,1,1h21.6c0.55,0,1-0.45,1-1V1.8
		C24.4,1.25,23.95,0.8,23.4,0.8L23.4,0.8z"/>
</g>
<path class="st0" d="M7.37,9.37C7.26,7.99,7.35,5.92,8.65,4.31c0.09-0.12,0.19-0.23,0.29-0.33c0.07-0.09,0.27-0.32,0.63-0.44
	c0.34-0.11,0.64-0.05,0.75-0.02c0.15,0.04,0.36,0.13,0.51,0.31c0.12,0.15,0.14,0.28,0.22,0.48c0.07,0.19,0.19,0.45,0.41,0.75
	c0.06-0.08,0.44-0.51,1.08-0.55c0.53-0.03,0.9,0.23,1,0.31c0.11,0.32,0.23,0.82,0.22,1.43c-0.03,1.14-0.52,1.95-0.85,2.47
	c-0.78,1.24-1.83,1.92-2.46,2.25c0.15,0.2,0.3,0.4,0.45,0.6c0.68-0.27,3.49-1.3,6.07,0.07c0.57,0.3,1.03,0.67,1.4,1.04
	c0.24,0.33,0.51,0.73,0.75,1.21c0.19,0.37,0.33,0.72,0.44,1.04c0.07-0.01,0.97-0.15,1.57,0.51c0.4,0.44,0.43,0.96,0.44,1.11
	c0,0.09,0,1.07-0.8,1.62c-0.46,0.32-0.95,0.32-1.14,0.31c-0.05,0.34-0.25,1.37-1.14,2.25c-0.92,0.91-1.99,1.09-2.32,1.14
	c-2.98,0-5.97,0-8.95,0c-0.11-0.03-0.41-0.12-0.65-0.41c-0.24-0.29-0.28-0.59-0.29-0.7c-0.01-0.05-0.09-0.6,0.31-1.02
	c0.41-0.42,0.96-0.35,1.02-0.34c-0.39-1.06-0.77-2.13-1.16-3.19c-0.21,0.02-1.19,0.09-2.03-0.6c-0.58-0.48-0.8-1.08-0.88-1.33
	c-0.1-0.4-0.27-1.38,0.2-2.37c0.35-0.74,0.93-1.19,1.31-1.48c0.27-0.21,0.64-0.44,1.09-0.65C6.6,9.56,7.03,9.44,7.37,9.37z"/>
<path class="st1" d="M8.43,9.58c0.11,0.03,0.25,0.08,0.4,0.15c0.16,0.08,0.29,0.18,0.39,0.26c0.07-0.51,0.14-0.96,0.23-1.35
	c0.09-0.41,0.19-0.8,0.29-1.16c0.12-0.33,0.3-0.77,0.61-1.23c0.38-0.56,0.8-0.94,1.11-1.19c-0.14-0.3-0.27-0.6-0.41-0.9
	c-0.67,0.42-1.11,0.88-1.38,1.2C8.62,6.65,8.45,8.04,8.41,8.55C8.38,8.98,8.4,9.34,8.43,9.58z"/>
<circle class="st1" cx="6.81" cy="12.26" r="1.11"/>
<path class="st1" d="M14.08,16.1c-0.14-0.01-0.35,0-0.58,0.08c-0.45,0.16-0.71,0.48-0.81,0.61c-0.12,0.11-0.31,0.31-0.45,0.61
	c-0.18,0.39-0.18,0.74-0.17,0.92c-0.01,0.14,0.01,0.42,0.16,0.71c0.13,0.24,0.09,0.31,0.06,0.39c-0.07,0.18-0.31,0.17-0.82,0.36
	c-0.34,0.12-0.55,0.2-0.72,0.39c-0.18,0.2-0.24,0.44-0.26,0.6c0,0.07-0.02,0.56,0.36,0.87c0.18,0.15,0.47,0.3,0.58,0.32
	c1.4-0.01,1.6-0.1,1.6-0.1c0,0.01-0.9,0.16-1.41-0.31c-0.06-0.06-0.35-0.33-0.28-0.64c0.04-0.17,0.16-0.28,0.23-0.33
	c0.19-0.14,0.39-0.19,0.47-0.21c1.03-0.17,1.46-0.11,1.58-0.33c0.09-0.17-0.1-0.32-0.33-1.05c-0.09-0.27-0.14-0.5-0.17-0.64
	c0.02-0.19,0.06-0.48,0.21-0.8c0.12-0.27,0.27-0.46,0.39-0.59c0.36-0.14,0.55-0.42,0.51-0.65C14.22,16.28,14.19,16.19,14.08,16.1z"
	/>
<path class="st1" d="M19.15,23.38"/>
</svg>
