<?xml version="1.0" encoding="utf-8"?>
<!-- Generator: Adobe Illustrator 27.0.0, SVG Export Plug-In . SVG Version: 6.00 Build 0)  -->
<svg version="1.1"
	 id="svg5153" xmlns:svg="http://www.w3.org/2000/svg" xmlns:inkscape="http://www.inkscape.org/namespaces/inkscape" xmlns:sodipodi="http://sodipodi.sourceforge.net/DTD/sodipodi-0.dtd" inkscape:version="1.2.2 (732a01da63, 2022-12-09)"
	 xmlns="http://www.w3.org/2000/svg" xmlns:xlink="http://www.w3.org/1999/xlink" x="0px" y="0px" viewBox="0 0 800 800"
	 style="enable-background:new 0 0 800 800;" xml:space="preserve">
<style type="text/css">
	.st0{fill:#00CC66;}
	.st1{fill:none;stroke:#00CC66;stroke-width:40;stroke-miterlimit:10;}
</style>
<sodipodi:namedview  bordercolor="#eeeeee" borderopacity="1" id="namedview5155" inkscape:current-layer="g28115" inkscape:cx="-49.1307" inkscape:cy="352.10335" inkscape:deskcolor="#505050" inkscape:pagecheckerboard="0" inkscape:pageopacity="0" inkscape:showpageshadow="0" inkscape:window-height="1009" inkscape:window-maximized="1" inkscape:window-width="1920" inkscape:window-x="-8" inkscape:window-y="-8" inkscape:zoom="0.7327394" pagecolor="#505050" showgrid="false">
	</sodipodi:namedview>
<path class="st0" d="M361,152"/>
<g>
	<path class="st1" d="M145.6,106.8c72.9,16.4,145.8,32.8,218.7,49.3c16.6,281.9-41.5,496.9-155.7,532c-17.7,5.4-39,7.3-65,2
		c-28.1-5.8-48.2-16.8-63.1-29.6C-12.3,580.7,17.6,358.7,145.6,106.8z"/>
	<path class="st1" d="M422.9,159.4c73-15.9,146-31.9,219.1-47.8c134.2,248.5,172.4,467.9,83.8,548c-13.7,12.4-32.3,23.1-58.1,29.3
		c-27.9,6.6-50.8,5.2-69.6-0.1C480.1,655.6,413.3,441.8,422.9,159.4z"/>
	<line class="st1" x1="30" y1="491.1" x2="341.7" y2="491.1"/>
	<line class="st1" x1="446" y1="435.4" x2="765.1" y2="435.4"/>
	<path class="st1" d="M286.3,302.2c0-33.7-4.5-61-5.6-61c-1.1,0,1.6,27.3,1.6,61s-2.4,62.2-1.3,62.2S286.3,335.9,286.3,302.2z"/>
	<circle class="st1" cx="582.3" cy="206.6" r="2"/>
	<circle class="st1" cx="269" cy="441.5" r="2"/>
	<path class="st1" d="M626,317c-6.1-22.7-15.6-41.3-16.1-41.2s8.1,19,14.1,41.7c6.1,22.7,8.8,42.7,9.3,42.6S632.1,339.7,626,317z"/>
</g>
</svg>
