<?xml version="1.0" encoding="utf-8"?>
<!-- Generator: Adobe Illustrator 26.5.1, SVG Export Plug-In . SVG Version: 6.00 Build 0)  -->
<svg version="1.1" xmlns="http://www.w3.org/2000/svg" xmlns:xlink="http://www.w3.org/1999/xlink" x="0px" y="0px"
	 viewBox="0 0 400 400" style="enable-background:new 0 0 400 400;" xml:space="preserve">
<style type="text/css">
	.st0{display:none;}
	.st1{fill:none;stroke:#000000;stroke-width:30;stroke-linejoin:round;stroke-miterlimit:10;}
	.st2{fill:none;stroke:#000000;stroke-width:20;stroke-linejoin:round;stroke-miterlimit:10;}
	.st3{fill:none;stroke:#000000;stroke-width:35;stroke-linejoin:round;stroke-miterlimit:10;}
</style>
<g id="svg146" xmlns:svg="http://www.w3.org/2000/svg" xmlns:sodipodi="http://sodipodi.sourceforge.net/DTD/sodipodi-0.dtd" xmlns:inkscape="http://www.inkscape.org/namespaces/inkscape" class="st0">
	
		<sodipodi:namedview  bordercolor="#eeeeee" borderopacity="1" id="namedview148" inkscape:current-layer="g916" inkscape:cx="108.78566" inkscape:cy="412.68366" inkscape:deskcolor="#505050" inkscape:pagecheckerboard="0" inkscape:pageopacity="0" inkscape:showpageshadow="0" inkscape:window-height="1009" inkscape:window-maximized="1" inkscape:window-width="1920" inkscape:window-x="-8" inkscape:window-y="-8" inkscape:zoom="0.71241008" pagecolor="#505050" showgrid="false">
		</sodipodi:namedview>
	
		<image style="overflow:visible;" width="512" height="512" xlink:href="../../../../../Downloads/question-mark.png"  transform="matrix(0.75 0 0 0.75 8 8.0016)">
	</image>
	
		<image style="display:inline;overflow:visible;" width="512" height="512" xlink:href="../../../../../Downloads/question-mark.png"  transform="matrix(0.75 0 0 0.75 8 8)">
	</image>
</g>
<g id="Layer_2">
	<path class="st1" d="M170.1,243c-3.1-8.3-3.8-15.1-4.1-19.6c-0.5-6.5-1.6-21.7,5.7-38.7c3.4-7.9,6.8-16,15-22.7
		c5.7-4.7,11.7-7.1,17.5-15.5c3.9-5.5,4.1-8.6,3.6-10.8c-0.8-3.7-4-6.9-7.7-7.7c-4.8-1.1-8.7,2-10.8,3.6c-1.7,1.3-4,3.6-8.3,12.9
		c-1.6,3.6-3.7,8.4-5.7,14.5c-4.2,3.2-10.4,7.3-18.6,10.3c-6.8,2.5-12.9,3.6-17.5,4.1c-3.9-1-11.6-3.7-17-10.8
		c-5.6-7.3-5.9-15.3-6.2-22.2c-0.4-9.3,1.8-16.4,3.1-20.6c1.1-3.7,4.8-14.3,13.9-25.3c9-10.8,18.5-16.2,24.1-19.2
		c6.3-3.5,21.1-11.7,41.7-11.7c5.5,0,17.2,0.3,30.8,5.5c5,1.9,13.8,5.3,22.9,13.1c11,9.4,16.1,19.6,18.4,24.3
		c4.2,8.6,6.1,16.4,7,21.8c0.4,16-3.8,27.7-6.6,33.9c-4.2,9.3-9.6,16-12.5,19.5c-6,7.3-10,9-16.8,16.8c-5.4,6.2-8.9,12-11.1,15.7
		c0.6,5.8,1,15-1.5,25.8c-2.4,10.2-4.4,18.3-11.6,23.8c-9.6,7.2-24.2,6.7-33.8,0.5C176.2,259.1,173.1,251.1,170.1,243z"/>
	<path class="st2" d="M-67.4-52.2"/>
	<path class="st1" d="M239.7,301.9c4.1,21.5-15.2,44.2-38.2,43.9c-21.7-0.3-40.4-21.2-37.2-42.3c2.7-17.4,19.3-29.9,36.6-30.5
		C218.9,272.4,236.4,284.7,239.7,301.9z"/>
</g>
<g id="Layer_3">
	<circle class="st3" cx="200" cy="200" r="182.5"/>
</g>
</svg>
