<?xml version="1.0" encoding="utf-8"?>
<!-- Generator: Adobe Illustrator 27.7.0, SVG Export Plug-In . SVG Version: 6.00 Build 0)  -->
<svg version="1.1" id="Layer_1" xmlns="http://www.w3.org/2000/svg" xmlns:xlink="http://www.w3.org/1999/xlink" x="0px" y="0px"
	 viewBox="0 0 512 512" style="enable-background:new 0 0 512 512;" xml:space="preserve">
<path d="M469.3,122.1l-25.6-16.8l-17.1-12.2l-111-74.9c-36.2-24.4-83.1-24.4-119.3,0L47,119c-29.4,19.9-47,52.9-47,88.4v197.9
	C0,464.1,47.9,512,106.7,512h64c11.8,0,21.3-9.6,21.3-21.3V320c0-11.8,9.6-21.3,21.3-21.3h85.3c11.8,0,21.3,9.6,21.3,21.3v170.7
	c0,11.8,9.5,21.3,21.3,21.3h64c58.8,0,106.7-47.9,106.7-106.7V207.4C512,173.7,496.1,142.2,469.3,122.1z M405.3,469.3h-42.7V320
	c0-35.3-28.7-64-64-64h-85.3c-35.3,0-64,28.7-64,64v149.3h-42.7c-35.3,0-64-28.7-64-64V207.4c0-21.3,10.5-41.2,28.2-53.1L220.2,53.6
	c21.8-14.7,49.8-14.7,71.6,0l149.3,100.8c17.7,11.9,28.2,31.7,28.2,53.1v197.9h0C469.3,440.6,440.6,469.3,405.3,469.3z"/>
</svg>
