<?xml version="1.0" encoding="utf-8"?>
<!-- Generator: Adobe Illustrator 27.0.0, SVG Export Plug-In . SVG Version: 6.00 Build 0)  -->
<svg version="1.1"
	 id="svg37461" xmlns:svg="http://www.w3.org/2000/svg" xmlns:inkscape="http://www.inkscape.org/namespaces/inkscape" xmlns:sodipodi="http://sodipodi.sourceforge.net/DTD/sodipodi-0.dtd" inkscape:version="1.2.2 (732a01da63, 2022-12-09)"
	 xmlns="http://www.w3.org/2000/svg" xmlns:xlink="http://www.w3.org/1999/xlink" x="0px" y="0px" viewBox="0 0 800 800"
	 style="enable-background:new 0 0 800 800;" xml:space="preserve">
<style type="text/css">
	.st0{fill:none;stroke:#00CC65;stroke-width:40;stroke-miterlimit:10;}
</style>
<sodipodi:namedview  bordercolor="#eeeeee" borderopacity="1" id="namedview37463" inkscape:current-layer="svg37461" inkscape:cx="-757.43163" inkscape:cy="357.56232" inkscape:deskcolor="#505050" inkscape:pagecheckerboard="0" inkscape:pageopacity="0" inkscape:showpageshadow="0" inkscape:window-height="1009" inkscape:window-maximized="1" inkscape:window-width="1920" inkscape:window-x="-8" inkscape:window-y="-8" inkscape:zoom="0.3663697" pagecolor="#505050" showgrid="false">
	</sodipodi:namedview>
<g>
	<path class="st0" d="M246.4,117.6H748v380.7c-0.8,11.6-4.2,39.7-24.6,66.4c-28.5,37.3-69,44.4-78.3,45.7c-98.1,0-196.2,0-294.3,0
		c-8.2-0.2-45.8-1.8-75.4-32.5c-21.3-22.1-27.2-47.4-29-57.6C246.4,386.1,246.4,251.9,246.4,117.6z"/>
	<path class="st0" d="M239.8,198.7c-22.3,0-44.5,0-66.8,0c-5.8,0.1-78,3.1-113.8,62.3c-19.5,32.3-18.4,65-17.1,78.3
		c-0.7,12.9-0.1,38.3,15.9,63.7c21.1,33.6,55.6,45.9,77.5,53.7c49.3,17.5,94.2,11.8,116.7,7.2"/>
	<path class="st0" d="M246.4,284.3c-27.7-4.2-50.4-3.2-66-1.4c-32.4,3.6-41.4,11-45.2,14.7c-12.2,11.9-14.4,28-14.9,36
		c1.1,6.5,4.4,20.3,15.9,30.4c8,7,16.9,9.7,28.5,11.6c15.1,2.5,40.6,4.8,74.4-1.4"/>
</g>
</svg>
