<?xml version="1.0" encoding="utf-8"?>
<!-- Generator: Adobe Illustrator 26.5.1, SVG Export Plug-In . SVG Version: 6.00 Build 0)  -->
<svg version="1.1" id="Layer_1" xmlns="http://www.w3.org/2000/svg" xmlns:xlink="http://www.w3.org/1999/xlink" x="0px" y="0px"
	 viewBox="0 0 25.2 25.2" style="enable-background:new 0 0 25.2 25.2;" xml:space="preserve">
<style type="text/css">
	.st0{fill:#FFFFFF;}
	.st1{stroke:#FFFFFF;stroke-width:1.1;stroke-linecap:round;stroke-miterlimit:10;}
	.st2{stroke:#FFFFFF;stroke-width:1.1;stroke-linecap:round;stroke-linejoin:round;stroke-miterlimit:10;}
	.st3{stroke:#FFFFFF;stroke-width:1.1;stroke-miterlimit:10;}
</style>
<g>
	<g>
		<polygon points="3.18,18.03 3.18,7.33 12.44,2.59 21.9,7.32 21.9,18.09 12.44,22.6 		"/>
		<path class="st0" d="M12.44,3.21l8.91,4.46v10.08l-8.91,4.25l-8.71-4.3V7.66L4.1,7.47L12.44,3.21 M12.43,1.98l-0.5,0.25L3.6,6.49
			L3.23,6.68l-0.6,0.31v0.67v10.02v0.68l0.61,0.3l8.71,4.3l0.48,0.24l0.48-0.23l8.91-4.25l0.63-0.3v-0.69V7.66V6.98l-0.61-0.3
			l-8.91-4.46L12.43,1.98L12.43,1.98z"/>
	</g>
	<line class="st1" x1="8.62" y1="9.55" x2="3.94" y2="7.09"/>
	<polyline class="st2" points="8.62,9.55 12.54,11.74 15.38,10.35 	"/>
	<line class="st3" x1="12.44" y1="21.99" x2="12.54" y2="11.74"/>
	<polyline class="st3" points="21.47,7.35 15.98,10.07 15.98,13.61 18.11,12.6 18.11,9.02 	"/>
	<line class="st3" x1="6.08" y1="5" x2="15.98" y2="10.07"/>
	<line class="st3" x1="8.77" y1="4.11" x2="18.24" y2="8.95"/>
</g>
<g>
	<path d="M23.4,1.8v21.6H1.8V1.8H23.4 M23.4,0.8H1.8c-0.55,0-1,0.45-1,1v21.6c0,0.55,0.45,1,1,1h21.6c0.55,0,1-0.45,1-1V1.8
		C24.4,1.25,23.95,0.8,23.4,0.8L23.4,0.8z"/>
</g>
</svg>
