<?xml version="1.0" encoding="utf-8"?>
<!-- Generator: Adobe Illustrator 26.5.1, SVG Export Plug-In . SVG Version: 6.00 Build 0)  -->
<svg version="1.1" id="Layer_1" xmlns="http://www.w3.org/2000/svg" xmlns:xlink="http://www.w3.org/1999/xlink" x="0px" y="0px"
	 viewBox="0 0 25.2 25.2" style="enable-background:new 0 0 25.2 25.2;" xml:space="preserve">
<style type="text/css">
	.st0{fill:#010101;}
	.st1{fill:#FFFFFF;}
	.st2{fill:#FDFEFF;}
</style>
<g>
	<path d="M23.4,1.8v21.6H1.8V1.8H23.4 M23.4,0.8H1.8c-0.55,0-1,0.45-1,1v21.6c0,0.55,0.45,1,1,1h21.6c0.55,0,1-0.45,1-1V1.8
		C24.4,1.25,23.95,0.8,23.4,0.8L23.4,0.8z"/>
</g>
<g>
	<path class="st0" d="M5.54,19.82c-0.3,0-0.55-0.25-0.55-0.55V8.44c0-0.3,0.25-0.55,0.55-0.55h6.81c0.3,0,0.55,0.25,0.55,0.55v10.84
		c0,0.3-0.25,0.55-0.55,0.55H5.54z"/>
	<path class="st0" d="M12.35,8.44v10.84H5.54V8.44H12.35 M12.35,7.34H5.54c-0.61,0-1.1,0.49-1.1,1.1v10.84c0,0.61,0.49,1.1,1.1,1.1
		h6.81c0.61,0,1.1-0.49,1.1-1.1V8.44C13.45,7.83,12.96,7.34,12.35,7.34L12.35,7.34z"/>
</g>
<g>
	<path class="st1" d="M11.85,18.27c-0.3,0-0.55-0.25-0.55-0.55V6.4c0-0.3,0.25-0.55,0.55-0.55h7.31c0.3,0,0.55,0.25,0.55,0.55v11.33
		c0,0.3-0.25,0.55-0.55,0.55H11.85z"/>
	<path class="st2" d="M19.16,6.4v11.33h-7.31V6.4H19.16 M19.16,5.3h-7.31c-0.61,0-1.1,0.49-1.1,1.1v11.33c0,0.61,0.49,1.1,1.1,1.1
		h7.31c0.61,0,1.1-0.49,1.1-1.1V6.4C20.26,5.79,19.77,5.3,19.16,5.3L19.16,5.3z"/>
</g>
<g>
	<path class="st0" d="M12.84,17.31c-0.3,0-0.55-0.25-0.55-0.55V5.92c0-0.3,0.25-0.55,0.55-0.55h6.81c0.3,0,0.55,0.25,0.55,0.55
		v10.84c0,0.3-0.25,0.55-0.55,0.55H12.84z"/>
	<path class="st0" d="M19.65,5.92v10.84h-6.81V5.92H19.65 M19.65,4.82h-6.81c-0.61,0-1.1,0.49-1.1,1.1v10.84
		c0,0.61,0.49,1.1,1.1,1.1h6.81c0.61,0,1.1-0.49,1.1-1.1V5.92C20.75,5.32,20.26,4.82,19.65,4.82L19.65,4.82z"/>
</g>
<g>
	<circle class="st1" cx="19.22" cy="16.33" r="0.9"/>
</g>
<g>
	<circle class="st1" cx="5.98" cy="8.74" r="0.89"/>
</g>
</svg>
