<?xml version="1.0" encoding="utf-8"?>
<!-- Generator: Adobe Illustrator 27.0.0, SVG Export Plug-In . SVG Version: 6.00 Build 0)  -->
<svg version="1.1" id="Layer_6" xmlns="http://www.w3.org/2000/svg" xmlns:xlink="http://www.w3.org/1999/xlink" x="0px" y="0px"
	 viewBox="0 0 1200 400" style="enable-background:new 0 0 1200 400;" xml:space="preserve">
<style type="text/css">
	.st0{fill:none;stroke:#00CC65;stroke-width:25;stroke-linecap:round;stroke-linejoin:round;}
</style>
<g>
	<g>
		<g>
			<polyline class="st0" points="370.5,329.1 370.5,376.7 323,376.7 275.4,376.7 			"/>
			<polyline class="st0" points="275.4,24.3 323,24.3 370.5,24.3 370.5,71.8 			"/>
			<polyline class="st0" points="17.1,70.8 17.1,23.3 64.7,23.3 112.2,23.3 			"/>
			<polyline class="st0" points="113.2,376.7 65.7,376.7 18.1,376.7 18.1,329.1 			"/>
		</g>
		<g>
			<line class="st0" x1="192.7" y1="171.4" x2="192.7" y2="50.1"/>
			<polyline class="st0" points="153.3,125.8 192.7,184 232.1,125.8 			"/>
		</g>
	</g>
	<line class="st0" x1="74.1" y1="314.4" x2="311.3" y2="314.4"/>
	<line class="st0" x1="74.1" y1="262.7" x2="311.3" y2="262.7"/>
	<line class="st0" x1="74.1" y1="208.8" x2="311.3" y2="208.8"/>
</g>
<g>
	<g>
		<g>
			<polyline class="st0" points="1183.8,329.1 1183.8,376.7 1136.3,376.7 1088.7,376.7 			"/>
			<polyline class="st0" points="1088.7,24.3 1136.3,24.3 1183.8,24.3 1183.8,71.8 			"/>
			<polyline class="st0" points="830.4,70.8 830.4,23.3 878,23.3 925.5,23.3 			"/>
			<polyline class="st0" points="926.5,376.7 879,376.7 831.4,376.7 831.4,329.1 			"/>
		</g>
		<g>
			<line class="st0" x1="1006" y1="336.4" x2="1006" y2="215.1"/>
			<polyline class="st0" points="966.6,290.8 1006,349 1045.4,290.8 			"/>
		</g>
	</g>
	<line class="st0" x1="887.4" y1="190.4" x2="1124.6" y2="190.4"/>
	<line class="st0" x1="887.4" y1="138.7" x2="1124.6" y2="138.7"/>
	<line class="st0" x1="887.4" y1="84.8" x2="1124.6" y2="84.8"/>
</g>
<g>
	<polyline class="st0" points="513.3,279.8 426.8,279.8 426.8,240 426.8,200.2 426.8,160.5 426.8,120.8 513.3,120.8 600,120.8 
		686.7,120.8 773.2,120.8 773.2,160.5 773.2,200.2 773.2,240 773.2,279.8 686.7,279.8 	"/>
	<rect x="521" y="207.1" class="st0" width="157.9" height="163.4"/>
	<rect x="521" y="29.4" class="st0" width="157.9" height="91.1"/>
	<line class="st0" x1="480.5" y1="206.9" x2="719.5" y2="206.9"/>
	<g>
		<line class="st0" x1="551.7" y1="246.5" x2="648.5" y2="246.5"/>
		<line class="st0" x1="551.7" y1="289.5" x2="648.5" y2="289.5"/>
		<line class="st0" x1="551.7" y1="332.4" x2="648.5" y2="332.4"/>
	</g>
</g>
</svg>
