<?xml version="1.0" encoding="utf-8"?>
<!-- Generator: Adobe Illustrator 27.0.0, SVG Export Plug-In . SVG Version: 6.00 Build 0)  -->
<svg version="1.1" xmlns="http://www.w3.org/2000/svg" xmlns:xlink="http://www.w3.org/1999/xlink" x="0px" y="0px"
	 viewBox="0 0 2520 2520" style="enable-background:new 0 0 2520 2520;" xml:space="preserve">
<style type="text/css">
	.st0{fill:none;stroke:#000000;stroke-width:120;stroke-linecap:round;stroke-linejoin:round;}
	.st1{stroke:#000000;stroke-width:35;stroke-linecap:round;stroke-linejoin:round;stroke-miterlimit:10;}
	.st2{fill:none;stroke:#000000;stroke-width:35;stroke-linecap:round;stroke-linejoin:round;stroke-miterlimit:10;}
	.st3{fill:none;stroke:#46B865;stroke-width:120;stroke-linecap:round;stroke-linejoin:round;}
	.st4{fill:#46B865;}
	.st5{fill:#46B864;}
	.st6{fill:none;stroke:#47B864;stroke-width:35;stroke-linecap:round;stroke-linejoin:round;stroke-miterlimit:10;}
	.st7{display:none;}
	.st8{display:inline;fill:none;stroke:#070908;stroke-miterlimit:10;}
</style>
<g id="Layer_2">
	
		<g id="g916_00000124858632149602528840000008969095177897298334_" transform="matrix(0.49989637,0,0,0.49886337,-0.01912095,0.01850937)">
		<path id="path142_00000021825713337323411190000014716751174649269384_" class="st0" d="M2741.4,980.2
			c0,167.4-135.7,303.1-303.1,303.1s-303.1-135.7-303.1-303.1s135.7-303.1,303.1-303.1C2605.7,677.1,2741.4,812.8,2741.4,980.2z"/>
		<path id="path144_00000001630101780105411700000010459552289778038959_" class="st0" d="M2438.3,404
			c-270.3,0-499.2,242.2-576.1,576.1c76.9,333.9,305.8,576.1,576.1,576.1s499.2-242.2,576.1-576.1
			C2937.5,646.2,2708.7,404,2438.3,404z"/>
		<path id="path2338_00000148646031502481995320000017352244446773929915_" class="st0" d="M2293.9,997.1l112.4,107.5l224.9-215"/>
	</g>
	<g id="layer1_00000103976425382011150260000007218237008801613206_">
		<path id="Gear_00000000915785532687713280000010653313262749467312_" d="M2086.2,1584.6h-98.7l-13-86.2
			c-21.7-5.7-42.5-14.4-61.8-25.8l-70.1,51.8l-69.8-69.8l51.7-70.2c-11.3-19.3-20-40.2-25.6-61.9l-86.1-13v-98.6l86.1-13
			c5.7-21.7,14.3-42.5,25.6-61.8l-51.7-70.2l69.8-69.8l70.1,51.8c19.3-11.3,40.1-20,61.8-25.6l13-86.2h98.7l13,86.2
			c21.7,5.7,42.5,14.3,61.8,25.6l70.1-51.8l69.8,69.8l-51.7,70.2c11.3,19.3,19.9,40.1,25.6,61.8l86.1,13.1v98.8l-86.1,13
			c-5.7,21.7-14.3,42.5-25.6,61.9l51.7,70.2l-69.8,69.9L2161,1473c-19.3,11.3-40.1,20-61.8,25.6L2086.2,1584.6L2086.2,1584.6z
			 M2036.8,1151.8c-59.8,0-108.3,48.5-108.4,108.4c0,59.9,48.5,108.5,108.3,108.5c59.8,0,108.3-48.5,108.4-108.4l0,0
			C2145.1,1200.4,2096.6,1151.9,2036.8,1151.8z"/>
	</g>
	<path id="path531_00000033341114956349623400000015790882157421253046_" d="M1447.9,1924.9l-100.2-83.6
		c-38-31.7-88.7-49.2-142.6-49.2h-130.2c-79.5-0.2-144,53.5-144,119.8V2248c0,66.3,64.5,120,144,120h288c79.5,0,144-53.8,144-120
		v-204.3C1506.9,1998.8,1485.9,1956.6,1447.9,1924.9z M1407.3,1958.7c9.2,7.7,17,16.1,23.3,25.2h-125c-15.8,0-28.8-10.8-28.8-24
		v-104.2c10.9,5.3,21,11.8,30.2,19.4L1407.3,1958.7z M1449.3,2248c0,39.6-38.9,72-86.4,72h-288c-47.5,0-86.4-32.4-86.4-72v-336.1
		c0-39.6,38.9-72,86.4-72h129.9c4.6,0,9.5,0,14.1,0.5V1960c0,39.6,38.9,72,86.4,72h143.4c0.6,3.8,0.6,7.7,0.6,11.8V2248z
		 M1161.3,2248c0,13.2-13,24-28.8,24h-57.6c-15.8,0-28.8-10.8-28.8-24v-24c0-13.2,13-24,28.8-24s28.8,10.8,28.8,24h28.8
		C1148.3,2224,1161.3,2234.8,1161.3,2248z M1391.7,2224v24c0,13.2-13,24-28.8,24h-57.6c-15.8,0-28.8-10.8-28.8-24s13-24,28.8-24
		h28.8c0-13.2,13-24,28.8-24S1391.7,2210.8,1391.7,2224z M1391.7,2104v24c0,13.2-13,24-28.8,24s-28.8-10.8-28.8-24h-28.8
		c-15.8,0-28.8-10.8-28.8-24s13-24,28.8-24h57.6C1378.7,2080,1391.7,2090.8,1391.7,2104z M1161.3,2104c0,13.2-13,24-28.8,24h-28.8
		c0,13.2-13,24-28.8,24s-28.8-10.8-28.8-24v-24c0-13.2,13-24,28.8-24h57.6C1148.3,2080,1161.3,2090.8,1161.3,2104z M1161.3,2007.9
		c0,13.2-13,24-28.8,24h-57.6c-15.8,0-28.8-10.8-28.8-24s13-24,28.8-24h57.6C1148.3,1983.9,1161.3,1994.7,1161.3,2007.9z"/>
	<path id="path139_00000138546990040465921450000017162104611036970405_" d="M141.1,1116.6c-15.8-18.3-23.3-40.7-21.6-63.9
		s12.2-44.3,29.7-59.5s39.8-22.6,63-21c23.1,1.7,44.2,12.2,59.4,29.8l92.1,109.8l-34,34.1l-94.5-112.8c-6.5-7.6-16-12.3-26.3-13
		c-10.5-0.7-20.4,2.6-28.2,9.4c-7.9,6.8-12.6,16.3-13.3,26.7s2.6,20.5,9.4,28.3l103.9,110.6l-33.9,33.9L141.1,1116.6z M695.3,1547.9
		H543.1c-51.9,0-112.3-47.2-112.3-108c0-56.5,51.4-108,107.8-108c102.4,0,135.2,130.5,149.2,186.2L695.3,1547.9z M633.3,1499.9
		c-18.3-63.3-45.1-120-94.7-120c-27.1,0-59.9,26.8-59.9,60c0,31.8,36,60,64.4,60H633.3L633.3,1499.9z M668.9,1120.3L242.1,1548
		H119.4v-123l426.8-427.8c32.7-32.8,90-32.8,122.7,0l0,0c16.4,16.4,25.4,38.3,25.4,61.5S685.3,1103.9,668.9,1120.3L668.9,1120.3z
		 M539.5,1182l-55-55.1l-317.2,317.9v55.1h55L539.5,1182L539.5,1182z M646.4,1058.8c0-10.4-4-20.2-11.4-27.6
		c-14.7-14.7-40.3-14.7-55,0l-61.7,61.8l55,55.1l61.7-61.8C642.4,1079,646.4,1069.2,646.4,1058.8L646.4,1058.8z"/>
	<line class="st1" x1="1644.7" y1="689.9" x2="1598.2" y2="512.8"/>
	<path class="st2" d="M1976.9,909.8c-27.1-60-75.8-148.9-160.8-236.4c-79.5-81.9-160.8-131.6-217.7-160.6"/>
	<line class="st1" x1="1598.2" y1="511.6" x2="1748" y2="466.3"/>
	<line class="st2" x1="677.5" y1="842.5" x2="491" y2="906.2"/>
	<path class="st2" d="M886.2,473.5c-62.3,33.6-153.8,92.4-240.8,189.4C564,753.7,517.4,843.6,491,906.1"/>
	<line class="st2" x1="489.7" y1="906.3" x2="428.2" y2="751.9"/>
	<line class="st2" x1="831.5" y1="1816.6" x2="878.9" y2="1993.6"/>
	<path class="st2" d="M498.2,1598.6c27.4,59.9,76.6,148.5,162.1,235.5c80,81.4,161.5,130.7,218.6,159.4"/>
	<line class="st2" x1="878.9" y1="1994.8" x2="729.4" y2="2040.8"/>
	<polyline class="st2" points="1609.9,2051.5 2305,2051.5 2157.6,1925.7 	"/>
	<line class="st2" x1="2157.6" y1="2162.4" x2="2305" y2="2051.5"/>
</g>
<g id="Layer_1">
	<g id="Layer_1_00000166675503279769612700000000423720967448882567_">
		<g id="g916" transform="matrix(0.49989637,0,0,0.49886337,-0.01912095,0.01850937)">
			<path id="path142" class="st3" d="M2787.2,952.8c0,167.4-135.7,303.1-303.1,303.1S2181,1120.2,2181,952.8
				s135.7-303.1,303.1-303.1C2651.5,649.7,2787.2,785.4,2787.2,952.8z"/>
			<path id="path144" class="st3" d="M2484.1,376.6c-270.3,0-499.2,242.2-576.1,576.1c76.9,333.9,305.8,576.1,576.1,576.1
				s499.2-242.2,576.1-576.1C2983.3,618.8,2754.5,376.6,2484.1,376.6z"/>
			<path id="path2338" class="st3" d="M2339.7,969.7l112.4,107.5l224.9-215"/>
		</g>
		<g id="layer1">
			<path id="Gear" class="st4" d="M2115.3,1544.8h-98.7l-13-86.2c-21.7-5.7-42.5-14.4-61.8-25.8l-70.1,51.8l-69.8-69.8l51.7-70.2
				c-11.3-19.3-20-40.2-25.6-61.9l-86.1-13v-98.6l86.1-13c5.7-21.7,14.3-42.5,25.6-61.8l-51.7-70.2l69.8-69.8l70.1,51.8
				c19.3-11.3,40.1-20,61.8-25.6l13-86.2h98.7l13,86.2c21.7,5.7,42.5,14.3,61.8,25.6l70.1-51.8l69.8,69.8l-51.7,70.2
				c11.3,19.3,19.9,40.1,25.6,61.8l86.1,13.1v98.8l-86.1,13c-5.7,21.7-14.3,42.5-25.6,61.9l51.7,70.2l-69.8,69.9l-70.1-51.8
				c-19.3,11.3-40.1,20-61.8,25.6L2115.3,1544.8L2115.3,1544.8z M2065.9,1112c-59.8,0-108.3,48.5-108.4,108.4
				c0,59.9,48.5,108.5,108.3,108.5c59.8,0,108.3-48.5,108.4-108.4l0,0C2174.2,1160.6,2125.7,1112.1,2065.9,1112z"/>
		</g>
		<path id="path531" class="st5" d="M1471.5,1888.9l-100.2-83.6c-38-31.7-88.7-49.2-142.6-49.2h-130.2c-79.5-0.2-144,53.5-144,119.8
			V2212c0,66.3,64.5,120,144,120h288c79.5,0,144-53.8,144-120v-204.3C1530.5,1962.8,1509.5,1920.6,1471.5,1888.9z M1430.9,1922.7
			c9.2,7.7,17,16.1,23.3,25.2h-125c-15.8,0-28.8-10.8-28.8-24v-104.2c10.9,5.3,21,11.8,30.2,19.4L1430.9,1922.7z M1472.9,2212
			c0,39.6-38.9,72-86.4,72h-288c-47.5,0-86.4-32.4-86.4-72v-336.1c0-39.6,38.9-72,86.4-72h129.9c4.6,0,9.5,0,14.1,0.5V1924
			c0,39.6,38.9,72,86.4,72h143.4c0.6,3.8,0.6,7.7,0.6,11.8V2212z M1184.9,2212c0,13.2-13,24-28.8,24h-57.6
			c-15.8,0-28.8-10.8-28.8-24v-24c0-13.2,13-24,28.8-24s28.8,10.8,28.8,24h28.8C1171.9,2188,1184.9,2198.8,1184.9,2212z
			 M1415.3,2188v24c0,13.2-13,24-28.8,24h-57.6c-15.8,0-28.8-10.8-28.8-24s13-24,28.8-24h28.8c0-13.2,13-24,28.8-24
			S1415.3,2174.8,1415.3,2188z M1415.3,2068v24c0,13.2-13,24-28.8,24s-28.8-10.8-28.8-24h-28.8c-15.8,0-28.8-10.8-28.8-24
			s13-24,28.8-24h57.6C1402.3,2044,1415.3,2054.8,1415.3,2068z M1184.9,2068c0,13.2-13,24-28.8,24h-28.8c0,13.2-13,24-28.8,24
			s-28.8-10.8-28.8-24v-24c0-13.2,13-24,28.8-24h57.6C1171.9,2044,1184.9,2054.8,1184.9,2068z M1184.9,1971.9c0,13.2-13,24-28.8,24
			h-57.6c-15.8,0-28.8-10.8-28.8-24s13-24,28.8-24h57.6C1171.9,1947.9,1184.9,1958.7,1184.9,1971.9z"/>
		<path id="path139" class="st4" d="M151.9,1076.8c-15.8-18.3-23.3-40.7-21.6-63.9c1.7-23.2,12.2-44.3,29.7-59.5s39.8-22.6,63-21
			c23.1,1.7,44.2,12.2,59.4,29.8l92.1,109.8l-34,34.1L246,993.3c-6.5-7.6-16-12.3-26.3-13c-10.5-0.7-20.4,2.6-28.2,9.4
			c-7.9,6.8-12.6,16.3-13.3,26.7s2.6,20.5,9.4,28.3l103.9,110.6l-33.9,33.9L151.9,1076.8z M706.1,1508.1H553.9
			c-51.9,0-112.3-47.2-112.3-108c0-56.5,51.4-108,107.8-108c102.4,0,135.2,130.5,149.2,186.2L706.1,1508.1z M644.1,1460.1
			c-18.3-63.3-45.1-120-94.7-120c-27.1,0-59.9,26.8-59.9,60c0,31.8,36,60,64.4,60H644.1L644.1,1460.1z M679.7,1080.5l-426.8,427.7
			H130.2v-123L557,957.4c32.7-32.8,90-32.8,122.7,0l0,0c16.4,16.4,25.4,38.3,25.4,61.5C705.1,1042.1,696.1,1064.1,679.7,1080.5
			L679.7,1080.5z M550.3,1142.2l-55-55.1L178.1,1405v55.1h55L550.3,1142.2L550.3,1142.2z M657.2,1019c0-10.4-4-20.2-11.4-27.6
			c-14.7-14.7-40.3-14.7-55,0l-61.7,61.8l55,55.1l61.7-61.8C653.2,1039.2,657.2,1029.4,657.2,1019L657.2,1019z"/>
		<line class="st6" x1="1644.6" y1="665" x2="1598.2" y2="487.9"/>
		<path class="st6" d="M1976.8,884.9c-27.1-60-75.8-148.9-160.8-236.4c-79.5-81.9-160.8-131.6-217.7-160.6"/>
		<line class="st6" x1="1598.2" y1="486.7" x2="1747.9" y2="441.4"/>
		<line class="st6" x1="656.6" y1="833" x2="470" y2="896.7"/>
		<path class="st6" d="M865.2,464c-62.3,33.6-153.8,92.4-240.8,189.4C543,744.2,496.4,834.1,470,896.6"/>
		<line class="st6" x1="468.7" y1="896.8" x2="407.3" y2="742.4"/>
		<line class="st6" x1="841.5" y1="1801.4" x2="888.9" y2="1978.3"/>
		<path class="st6" d="M508.2,1583.3c27.4,59.9,76.6,148.5,162.1,235.5c80,81.4,161.5,130.7,218.6,159.4"/>
		<line class="st6" x1="888.9" y1="1979.5" x2="739.4" y2="2025.6"/>
		<polyline class="st6" points="1621.4,2033.1 2316.5,2033.1 2169.1,1907.3 		"/>
		<line class="st6" x1="2169.1" y1="2144" x2="2316.5" y2="2033.1"/>
	</g>
	<g id="Layer_2_00000009577287843158130160000007114725836475653047_" class="st7">
		<circle class="st8" cx="1260" cy="1088.5" r="823.9"/>
	</g>
</g>
</svg>
