<?xml version="1.0" encoding="utf-8"?>
<!-- Generator: Adobe Illustrator 26.5.1, SVG Export Plug-In . SVG Version: 6.00 Build 0)  -->
<svg version="1.1"
	 id="svg5153" xmlns:svg="http://www.w3.org/2000/svg" xmlns:inkscape="http://www.inkscape.org/namespaces/inkscape" xmlns:sodipodi="http://sodipodi.sourceforge.net/DTD/sodipodi-0.dtd"
	 xmlns="http://www.w3.org/2000/svg" xmlns:xlink="http://www.w3.org/1999/xlink" x="0px" y="0px" viewBox="0 0 800 800"
	 style="enable-background:new 0 0 800 800;" xml:space="preserve">
<style type="text/css">
	.st0{fill:#00CC66;}
</style>
<sodipodi:namedview  bordercolor="#eeeeee" borderopacity="1" id="namedview5155" inkscape:current-layer="svg5153" inkscape:cx="155.06877" inkscape:cy="428.87007" inkscape:deskcolor="#505050" inkscape:pagecheckerboard="0" inkscape:pageopacity="0" inkscape:showpageshadow="0" inkscape:window-height="1009" inkscape:window-maximized="1" inkscape:window-width="1920" inkscape:window-x="-8" inkscape:window-y="-8" inkscape:zoom="2.9309576" pagecolor="#505050" showgrid="false">
	</sodipodi:namedview>
<g>
	<g>
		<path class="st0" d="M549,66.6c53.4,0,89,31,105.9,45.7c18.9,16.5,57.4,50,60.8,104.9c3,49.5-24.3,85.5-32.6,95.7
			C565,438.5,446.9,563.9,328.9,689.4l-249-257C203.6,323.2,327.3,214.1,451,105c10.2-9.1,45.4-37.9,96.7-38.4
			C548.1,66.6,548.5,66.6,549,66.6 M549,26.6c-0.5,0-1.1,0-1.6,0c-59.9,0.5-102.7,30.6-122.9,48.4L239,238.7L53.4,402.4
			c-8.2,7.2-13.1,17.5-13.5,28.4c-0.4,10.9,3.6,21.5,11.2,29.4l249,257c7.5,7.8,17.9,12.2,28.7,12.2c0.1,0,0.2,0,0.3,0
			c10.9-0.1,21.3-4.6,28.8-12.6l354.1-376.4c0.6-0.7,1.2-1.4,1.8-2.1c10.4-12.8,19.2-26.8,26-41.9c12-26.4,17.3-53.9,15.6-81.6
			c-4.4-71.6-53.5-114.4-74.4-132.6C662.1,65.6,617.4,26.6,549,26.6L549,26.6z"/>
	</g>
</g>
<g>
	<g>
		<path class="st0" d="M589.2,167c18.8,0,34,15.2,34,34s-15.2,34-34,34c-18.8,0-34-15.2-34-34S570.4,167,589.2,167 M589.2,117
			c-46.3,0-84,37.7-84,84s37.7,84,84,84s84-37.7,84-84S635.5,117,589.2,117L589.2,117z"/>
	</g>
</g>
</svg>
