<?xml version="1.0" encoding="utf-8"?>
<!-- Generator: Adobe Illustrator 26.5.1, SVG Export Plug-In . SVG Version: 6.00 Build 0)  -->
<svg version="1.1"
	 id="Layer_1" xmlns:sodipodi="http://sodipodi.sourceforge.net/DTD/sodipodi-0.dtd" xmlns:svg="http://www.w3.org/2000/svg" xmlns:inkscape="http://www.inkscape.org/namespaces/inkscape" inkscape:version="1.2.2 (732a01da63, 2022-12-09)"
	 xmlns="http://www.w3.org/2000/svg" xmlns:xlink="http://www.w3.org/1999/xlink" x="0px" y="0px" viewBox="0 0 400 400"
	 style="enable-background:new 0 0 400 400;" xml:space="preserve">
<style type="text/css">
	.st0{fill:#FFFFFF;}
</style>
<sodipodi:namedview  bordercolor="#eeeeee" borderopacity="1" id="namedview534" inkscape:current-layer="Layer_1" inkscape:cx="-112.67307" inkscape:cy="232.33362" inkscape:deskcolor="#505050" inkscape:pagecheckerboard="0" inkscape:pageopacity="0" inkscape:showpageshadow="0" inkscape:window-height="1009" inkscape:window-maximized="1" inkscape:window-width="1920" inkscape:window-x="-8" inkscape:window-y="-8" inkscape:zoom="0.57245266" pagecolor="#505050" showgrid="false">
	</sodipodi:namedview>
<path id="path531" class="st0" d="M340.3,104.9l-61.4-51.2c-23.3-19.4-54.4-30.2-87.4-30.2h-79.8C63,23.4,23.5,56.3,23.5,96.9v206
	c0,40.6,39.5,73.6,88.2,73.6h176.5c48.7,0,88.2-33,88.2-73.6V177.7C376.5,150.2,363.6,124.3,340.3,104.9z M315.4,125.6
	c5.6,4.7,10.4,9.9,14.3,15.5h-76.6c-9.7,0-17.7-6.6-17.7-14.7V62.5c6.7,3.2,12.9,7.2,18.5,11.9L315.4,125.6z M341.2,302.9
	c0,24.3-23.8,44.1-53,44.1H111.8c-29.1,0-53-19.9-53-44.1v-206c0-24.3,23.8-44.1,53-44.1h79.6c2.8,0,5.8,0,8.6,0.3v73.3
	c0,24.3,23.8,44.1,52.9,44.1h87.9c0.4,2.4,0.4,4.7,0.4,7.2V302.9z M164.7,302.9c0,8.1-7.9,14.7-17.6,14.7h-35.3
	c-9.7,0-17.7-6.6-17.7-14.7v-14.7c0-8.1,7.9-14.7,17.7-14.7s17.6,6.6,17.6,14.7h17.7C156.8,288.2,164.7,294.8,164.7,302.9z
	 M305.9,288.2v14.7c0,8.1-7.9,14.7-17.6,14.7h-35.3c-9.7,0-17.6-6.6-17.6-14.7c0-8.1,7.9-14.7,17.6-14.7h17.7
	c0-8.1,7.9-14.7,17.6-14.7S305.9,280.1,305.9,288.2z M305.9,214.6v14.7c0,8.1-7.9,14.7-17.6,14.7s-17.6-6.6-17.6-14.7h-17.7
	c-9.7,0-17.6-6.6-17.6-14.7s7.9-14.7,17.6-14.7h35.3C298,199.9,305.9,206.5,305.9,214.6z M164.7,214.6c0,8.1-7.9,14.7-17.6,14.7
	h-17.7c0,8.1-7.9,14.7-17.6,14.7s-17.7-6.6-17.7-14.7v-14.7c0-8.1,7.9-14.7,17.7-14.7h35.3C156.8,199.9,164.7,206.5,164.7,214.6z
	 M164.7,155.8c0,8.1-7.9,14.7-17.6,14.7h-35.3c-9.7,0-17.7-6.6-17.7-14.7c0-8.1,7.9-14.7,17.7-14.7h35.3
	C156.8,141.1,164.7,147.7,164.7,155.8z"/>
</svg>
