<?xml version="1.0" encoding="UTF-8" standalone="no"?>
<svg
   id="Layer_1"
   data-name="Layer 1"
   viewBox="0 0 18.75 18.75"
   width="400"
   height="400"
   version="1.1"
   sodipodi:docname="template_green.svg"
   inkscape:version="1.2.2 (732a01da63, 2022-12-09)"
   xmlns:inkscape="http://www.inkscape.org/namespaces/inkscape"
   xmlns:sodipodi="http://sodipodi.sourceforge.net/DTD/sodipodi-0.dtd"
   xmlns="http://www.w3.org/2000/svg"
   xmlns:svg="http://www.w3.org/2000/svg">
  <defs
     id="defs536" />
  <sodipodi:namedview
     id="namedview534"
     pagecolor="#505050"
     bordercolor="#eeeeee"
     borderopacity="1"
     inkscape:showpageshadow="0"
     inkscape:pageopacity="0"
     inkscape:pagecheckerboard="0"
     inkscape:deskcolor="#505050"
     showgrid="false"
     inkscape:zoom="0.57245266"
     inkscape:cx="-280.37253"
     inkscape:cy="232.33362"
     inkscape:window-width="1920"
     inkscape:window-height="1009"
     inkscape:window-x="-8"
     inkscape:window-y="-8"
     inkscape:window-maximized="1"
     inkscape:current-layer="Layer_1" />
  <path
     d="m 16.828125,4.3221333 -3.2625,-2.7198795 C 12.328125,0.57057532 10.678125,2.5893686e-5 8.925,2.5893686e-5 H 4.6875 C 2.1,-0.00778986 0,1.7429372 0,3.900083 V 14.842127 C 0,16.999273 2.1,18.75 4.6875,18.75 h 9.375 c 2.5875,0 4.6875,-1.750727 4.6875,-3.907873 V 8.1909274 C 18.75,6.729383 18.065625,5.3538117 16.828125,4.3221333 Z M 15.50625,5.4241534 c 0.3,0.2501039 0.553125,0.523655 0.759375,0.8206533 h -4.06875 c -0.515625,0 -0.9375,-0.3517085 -0.9375,-0.7815745 V 2.0711985 c 0.35625,0.1719464 0.684375,0.3829716 0.984375,0.6330754 z M 16.875,14.842127 c 0,1.289598 -1.265625,2.344724 -2.8125,2.344724 h -9.375 c -1.546875,0 -2.8125,-1.055126 -2.8125,-2.344724 V 3.900083 c 0,-1.289598 1.265625,-2.3447237 2.8125,-2.3447237 h 4.228125 c 0.15,0 0.309375,0 0.459375,0.015632 v 3.8922409 c 0,1.289598 1.265625,2.3447237 2.8125,2.3447237 h 4.66875 C 16.875,7.9330078 16.875,8.0580597 16.875,8.1909274 Z m -9.375,0 c 0,0.429866 -0.421875,0.781574 -0.9375,0.781574 h -1.875 c -0.515625,0 -0.9375,-0.351708 -0.9375,-0.781574 v -0.781575 c 0,-0.429866 0.421875,-0.781574 0.9375,-0.781574 0.515625,0 0.9375,0.351708 0.9375,0.781574 h 0.9375 c 0.515625,0 0.9375,0.351709 0.9375,0.781575 z M 15,14.060552 v 0.781575 c 0,0.429866 -0.421875,0.781574 -0.9375,0.781574 h -1.875 c -0.515625,0 -0.9375,-0.351708 -0.9375,-0.781574 0,-0.429866 0.421875,-0.781575 0.9375,-0.781575 h 0.9375 c 0,-0.429866 0.421875,-0.781574 0.9375,-0.781574 0.515625,0 0.9375,0.351708 0.9375,0.781574 z m 0,-3.907873 v 0.781575 c 0,0.429866 -0.421875,0.781575 -0.9375,0.781575 -0.515625,0 -0.9375,-0.351709 -0.9375,-0.781575 h -0.9375 c -0.515625,0 -0.9375,-0.351709 -0.9375,-0.781575 0,-0.4298654 0.421875,-0.781574 0.9375,-0.781574 h 1.875 c 0.515625,0 0.9375,0.3517086 0.9375,0.781574 z m -7.5,0 c 0,0.429866 -0.421875,0.781575 -0.9375,0.781575 H 5.625 c 0,0.429866 -0.421875,0.781575 -0.9375,0.781575 -0.515625,0 -0.9375,-0.351709 -0.9375,-0.781575 v -0.781575 c 0,-0.4298654 0.421875,-0.781574 0.9375,-0.781574 h 1.875 c 0.515625,0 0.9375,0.3517086 0.9375,0.781574 z m 0,-3.1262977 c 0,0.429866 -0.421875,0.7815746 -0.9375,0.7815746 h -1.875 c -0.515625,0 -0.9375,-0.3517086 -0.9375,-0.7815746 0,-0.429866 0.421875,-0.7815746 0.9375,-0.7815746 h 1.875 c 0.515625,0 0.9375,0.3517086 0.9375,0.7815746 z"
     id="path531"
     style="stroke-width:0.855994;fill:#00cc65;fill-opacity:1" />
</svg>
